<?xml version="1.0" encoding="iso-8859-1"?>
<!-- Generator: Adobe Illustrator 19.0.0, SVG Export Plug-In . SVG Version: 6.00 Build 0)  -->
<svg version="1.1" id="Capa_1" xmlns="http://www.w3.org/2000/svg" xmlns:xlink="http://www.w3.org/1999/xlink" x="0px" y="0px"
	 viewBox="0 0 512 512" style="enable-background:new 0 0 512 512;" xml:space="preserve">
<path style="fill:#00A6FF;" d="M512,256c0,68.38-26.63,132.67-74.98,181.02C388.67,485.37,324.38,512,256,512
	s-132.67-26.63-181.02-74.98S0,324.38,0,256S26.63,123.33,74.98,74.98S187.62,0,256,0s132.67,26.63,181.02,74.98
	C485.37,123.33,512,187.62,512,256z"/>
<path style="fill:#006EF5;" d="M512,256c0,68.38-26.63,132.67-74.98,181.02C388.67,485.37,324.38,512,256,512V0
	c68.38,0,132.67,26.63,181.02,74.98C485.37,123.33,512,187.62,512,256z"/>
<path style="fill:#D1FEFB;" d="M467,256c0,116.35-94.65,211-211,211S45,372.35,45,256S139.65,45,256,45S467,139.65,467,256z"/>
<path style="fill:#77FEF6;" d="M467,256c0,116.35-94.65,211-211,211V45C372.35,45,467,139.65,467,256z"/>
<polygon style="fill:#F0E7DF;" points="315.52,113.81 312.88,279.81 196.48,398.19 199.12,232.19 "/>
<g>
	<rect x="71.18" y="241" style="fill:#8B8992;" width="44.05" height="30"/>
	<rect x="396.77" y="241" style="fill:#8B8992;" width="44.05" height="30"/>
	
		<rect x="125.888" y="349.084" transform="matrix(-0.7071 -0.7071 0.7071 -0.7071 -21.9028 733.145)" style="fill:#8B8992;" width="30" height="44.05"/>
	<polygon style="fill:#8B8992;" points="397.29,135.92 366.14,167.07 344.93,145.85 376.08,114.71 	"/>
	
		<rect x="118.862" y="125.883" transform="matrix(-0.7071 -0.7071 0.7071 -0.7071 140.8889 340.1243)" style="fill:#8B8992;" width="44.05" height="30"/>
	<polygon style="fill:#8B8992;" points="397.29,376.08 376.08,397.29 344.93,366.15 366.14,344.93 	"/>
	<rect x="241" y="60" style="fill:#8B8992;" width="30" height="52.35"/>
	<rect x="241" y="395.8" style="fill:#8B8992;" width="30" height="52.35"/>
</g>
<g>
	<rect x="256" y="60" style="fill:#78777F;" width="15" height="52.35"/>
	<rect x="256" y="395.8" style="fill:#78777F;" width="15" height="52.35"/>
	<polygon style="fill:#78777F;" points="366.14,344.93 397.29,376.08 376.08,397.29 344.93,366.15 	"/>
	<polygon style="fill:#78777F;" points="366.14,167.07 344.93,145.85 376.08,114.71 397.29,135.92 	"/>
	<rect x="396.77" y="241" style="fill:#78777F;" width="44.05" height="30"/>
</g>
<polygon style="fill:#DFCDBD;" points="315.52,113.81 312.88,279.81 196.48,398.19 "/>
<polygon style="fill:#FF1A4B;" points="315.52,113.81 312.88,279.81 199.12,232.19 "/>
<polygon style="fill:#D5243E;" points="315.52,113.81 312.88,279.81 256,256 "/>
<g>
</g>
<g>
</g>
<g>
</g>
<g>
</g>
<g>
</g>
<g>
</g>
<g>
</g>
<g>
</g>
<g>
</g>
<g>
</g>
<g>
</g>
<g>
</g>
<g>
</g>
<g>
</g>
<g>
</g>
</svg>
