<?xml version="1.0" encoding="iso-8859-1"?>
<!-- Generator: Adobe Illustrator 19.0.0, SVG Export Plug-In . SVG Version: 6.00 Build 0)  -->
<svg version="1.1" id="Capa_1" xmlns="http://www.w3.org/2000/svg" xmlns:xlink="http://www.w3.org/1999/xlink" x="0px" y="0px"
	 viewBox="0 0 512 512" style="enable-background:new 0 0 512 512;" xml:space="preserve">
<path style="fill:#4E901E;" d="M424.86,129.706c-3.206,2.853-7.18,6.132-11.85,9.484c-26.003,18.729-73.753,40.228-132.513,8.176
	c-3.102-1.691-6.236-3.538-9.39-5.53c0,0,57.442-89.006,152.352-29.146C429.467,116.477,430.162,124.985,424.86,129.706z"/>
<path style="fill:#5EAC24;" d="M413.011,139.19c-26.003,18.729-73.753,40.228-132.513,8.176
	C304.642,125.629,350.703,100.332,413.011,139.19z"/>
<path style="fill:#6DC82A;" d="M374.641,54.677c-0.986,3.715-2.314,8.041-4.047,12.763c-10.397,28.265-35.798,70.672-95.834,80.062
	c-6.827,1.069-14.112,1.712-21.873,1.857c0,0-0.965-105.93,111.222-108.119C371.206,41.094,376.466,47.818,374.641,54.677z"/>
<path style="fill:#7ED63E;" d="M370.593,67.439c-10.397,28.265-35.798,70.672-95.834,80.062
	C282.334,117.629,304.684,73.312,370.593,67.439z"/>
<path style="fill:#AA6100;" d="M145.195,0.148c-4.215-0.83-8.309,1.912-9.141,6.129c-0.832,4.217,1.913,8.309,6.129,9.141
	c89.567,17.664,102.94,83.209,102.94,120.707c0,9.004-0.863,14.812-0.896,15.032c-0.667,4.243,2.23,8.225,6.473,8.895
	c0.412,0.065,0.821,0.096,1.224,0.096c3.762,0,7.071-2.735,7.677-6.568c0.045-0.281,1.086-6.995,1.086-17.456
	C260.688,102.09,249.434,20.707,145.195,0.148z"/>
<path style="fill:#EE8700;" d="M415.948,419.625c-30.61,53.022-83.538,85.126-140.067,91.279
	c-37.655,4.119-76.908-3.289-112.228-23.678c-88.332-50.999-118.599-163.953-67.6-252.295
	c37.79-65.453,109.593-99.03,180.202-91.279c24.674,2.708,49.214,10.469,72.093,23.678
	C436.678,218.339,466.946,331.293,415.948,419.625z"/>
<path style="fill:#FF9811;" d="M415.948,419.625c-30.61,53.022-83.538,85.126-140.067,91.279
	c-24.685-2.708-49.224-10.459-72.104-23.678c-88.342-50.999-118.609-163.953-67.6-252.295
	c30.61-53.022,83.538-85.126,140.078-91.279c24.674,2.708,49.214,10.469,72.093,23.678
	C436.678,218.339,466.946,331.293,415.948,419.625z"/>
<g>
</g>
<g>
</g>
<g>
</g>
<g>
</g>
<g>
</g>
<g>
</g>
<g>
</g>
<g>
</g>
<g>
</g>
<g>
</g>
<g>
</g>
<g>
</g>
<g>
</g>
<g>
</g>
<g>
</g>
</svg>
