<?xml version="1.0" encoding="UTF-8" standalone="no"?><!DOCTYPE svg PUBLIC "-//W3C//DTD SVG 1.1//EN" "http://www.w3.org/Graphics/SVG/1.1/DTD/svg11.dtd"><svg width="100%" height="100%" viewBox="0 0 353 315" version="1.1" xmlns="http://www.w3.org/2000/svg" xmlns:xlink="http://www.w3.org/1999/xlink" xml:space="preserve" xmlns:serif="http://www.serif.com/" style="fill-rule:evenodd;clip-rule:evenodd;stroke-linecap:round;stroke-linejoin:round;stroke-miterlimit:1.5;"><rect id="Banane" x="0" y="0" width="352.242" height="314.435" style="fill:none;"/><clipPath id="_clip1"><rect x="0" y="0" width="352.242" height="314.435"/></clipPath><g clip-path="url(#_clip1)"><path d="M270.561,313.435c9.458,-114.905 -24.016,-222.014 -108.969,-215.298l-54.264,-65.85c-13.597,-3.589 -22.012,3.744 -28.072,16.042l37.655,60.703c-15.202,11.242 -26.627,18.706 -39.506,63.237c-13.551,46.855 17.836,96.674 14.144,142.223l179.012,-1.057Z" style="fill:#f3d357;stroke:#000;stroke-width:8px;"/><path d="M103.704,34.194c-8.903,-2.993 -17.906,3.724 -20.957,12.773l4.834,7.865c3.904,-11.273 11.79,-15.041 22.209,-14.039" style="fill:#a96b21;stroke:#000;stroke-width:2px;"/><path d="M127.754,233.632c16.299,-22.43 32.546,-23.365 48.367,0c-5.79,-31.328 -42.576,-30.145 -48.367,0Z" style="stroke:#000;stroke-width:2.5px;"/><path d="M200.411,233.632c14.447,-22.43 28.848,-23.365 42.871,0c-5.132,-31.328 -37.738,-30.145 -42.871,0Z" style="stroke:#000;stroke-width:2.5px;"/><g><path d="M137.693,313.244c-4.723,-20.301 -16.936,-41.664 -1.294,-55.479c8.437,-7.451 38.37,9.799 50.292,12.31c9.956,2.097 37.88,-15.976 46.329,-13.049c16.49,5.714 10.095,36.194 1.692,56.409l-97.019,-0.191Z" style="fill:#921c00;stroke:#000;stroke-width:5px;"/><path d="M139.984,310.989l91.903,0c-31.574,-26.526 -60.232,-24.754 -91.903,0Z" style="fill:#ff3600;"/></g><path d="M88.581,54.832c3.505,-6.451 6.305,-10.935 10.667,-11.68l30.157,70.588c-21.774,23.606 -21.88,72.866 -19.615,88.457c2.804,19.309 19.093,37.702 14.763,46.081c-5.448,10.541 -12.173,36.958 -0.895,61.711l-27.39,1c-2.843,-53.582 -23.826,-92.1 -17.668,-123.897c4.309,-22.249 13.972,-64.197 42.761,-77.04l-32.78,-55.22Z" style="fill:#b8950b;stroke:#b8950f;stroke-width:1px;"/><ellipse cx="249.483" cy="244.772" rx="16.31" ry="6.047" style="fill:#ff3600;"/><ellipse cx="115.558" cy="244.772" rx="16.31" ry="6.047" style="fill:#ff3600;"/><path d="M198.661,120.137c0,0 23.934,12.517 39.294,43.647" style="fill:none;stroke:#fff;stroke-width:10px;"/></g></svg>