<?xml version="1.0" encoding="UTF-8" standalone="no"?><!DOCTYPE svg PUBLIC "-//W3C//DTD SVG 1.1//EN" "http://www.w3.org/Graphics/SVG/1.1/DTD/svg11.dtd"><svg width="100%" height="100%" viewBox="0 0 208 443" version="1.1" xmlns="http://www.w3.org/2000/svg" xmlns:xlink="http://www.w3.org/1999/xlink" xml:space="preserve" xmlns:serif="http://www.serif.com/" style="fill-rule:evenodd;clip-rule:evenodd;stroke-linecap:round;stroke-linejoin:round;stroke-miterlimit:1.5;"><rect id="Betterave" x="0" y="0" width="207.539" height="442.65" style="fill:none;"/><g id="Betterave1" serif:id="Betterave"><path d="M137.271,215.425c-20.322,-39.701 20.455,-80.677 63.433,-129.811c-6.056,92.536 -17.031,136.822 -63.433,129.811Z" style="fill:#027818;stroke:#000;stroke-width:5px;"/><path d="M141.925,208.167c-26.014,-22.985 14.62,-71.094 45.042,-99.823c12.444,42.488 -14.502,101.931 -45.042,99.823Z" style="fill:#002f09;"/><path d="M126.569,201.075c55.919,-32.192 17.501,-117.629 -17.867,-190.187c-22.483,112.499 -48.736,196.552 17.867,190.187Z" style="fill:#027818;stroke:#000;stroke-width:5px;"/><path d="M132.465,262.377c5.847,-32.038 15.09,-77.077 47.134,-121.926c-36.16,32.893 -49.757,76.887 -60.105,121.926l12.971,0Z" style="fill:#7f023d;stroke:#000;stroke-width:5px;"/><path d="M130.167,185.946c-33.689,3.6 -33.587,-90.007 -23.411,-130.593c33.357,29.111 50.509,120.704 23.411,130.593Z" style="fill:#002f09;"/><path d="M109.282,207.676c28.843,-34.017 -9.399,-94.681 -40.035,-152.323c-15.214,91.477 -13.816,159.277 40.035,152.323Z" style="fill:#027818;stroke:#000;stroke-width:5px;"/><path d="M105.203,204.357c-34.47,-4.103 -36.803,-65.949 -28.127,-106.882c34.405,27.863 49.174,85.981 28.127,106.882Z" style="fill:#002f09;"/><path d="M119.494,254.667c6.722,-15.937 11.98,-27.901 20.248,-49.923c-0.458,22.996 -7.7,35.124 -12.831,52.537l-7.417,-2.614Z" style="fill:#530128;"/><path d="M106.522,257.824c15.733,-17.772 20.412,-123.773 4.331,-190.029c29.694,80.582 25.738,169.549 6.502,194.582l-10.833,-4.553Z" style="fill:#7f023d;stroke:#000;stroke-width:5px;"/><path d="M98.032,251.868c5.567,-32.089 -1.083,-76.938 -15.683,-130.089c22.589,43.351 32.714,87.794 26.885,133.638l-11.202,-3.549Z" style="fill:#7f023d;stroke:#000;stroke-width:5px;"/><path d="M112.085,252.453c6.723,-15.937 10.95,-35.671 13.612,-57.785c1.293,21.815 -0.056,42.307 -6.194,60.4l-7.418,-2.615Z" style="fill:#530128;"/><path d="M100.021,251.283c3.462,-15.231 3.752,-33.189 2.052,-52.859c5.5,18.542 8.166,36.523 5.693,53.486l-7.745,-0.627Z" style="fill:#530128;"/><path d="M34.158,389.254c-15.735,-12.17 -26.405,-28.287 -26.604,-42.947c-1.192,-87.637 51.484,-116.02 115.287,-88.264c84.28,16.282 35.665,99.471 15.775,124.84c-19.523,24.903 -46.173,29.446 -70.345,23.239l0,0.001c-7.059,11.83 -25.894,21.192 -49.101,29.639c9.739,-14.773 17.459,-29.856 14.987,-46.509l0.001,0.001Z" style="fill:#7f023d;stroke:#000;stroke-width:8px;"/><path d="M11.948,349.335c10.161,22.825 33.972,36.933 36.854,34.601c-2.231,18.464 -9.421,31.577 -19.752,42.859c5.968,-10.567 10.686,-22.185 8.865,-39.306c-13.073,-10.385 -23.436,-21.74 -25.967,-38.154Z" style="fill:#530128;"/><path d="M119.494,261.377c23.356,14.276 35.734,34.929 25.506,65.655l-20.066,7.447c17.667,37.89 -23.943,58.03 -56.663,67.644c41.647,10.998 73.26,-12.736 95.482,-75.556c15.074,-42.618 -17.269,-60.513 -44.259,-65.19Z" style="fill:#530128;"/><g><path d="M147.314,342.082l6.416,-21.816l-28.774,-2.997l-4.072,13.353l26.43,11.46Z" style="fill:#fff;"/><path d="M155.29,315.517l-28.926,-3.013" style="fill:none;stroke:#000;stroke-width:2px;"/><path d="M153.73,320.266l-28.926,-3.013" style="fill:none;stroke:#000;stroke-width:5px;"/><path d="M147.324,342.372l-26.467,-11.762" style="fill:none;stroke:#000;stroke-width:5px;"/><path d="M145.908,347.168l-26.468,-11.763" style="fill:none;stroke:#000;stroke-width:2px;"/></g><g><path d="M50.076,313.349l6.485,-21.796l38.584,16.907l-3.786,13.438l-41.283,-8.549Z" style="fill:#fff;"/><path d="M59.346,287.166l37.174,16.519" style="fill:none;stroke:#000;stroke-width:2px;"/><path d="M58.134,292.018l37.173,16.519" style="fill:none;stroke:#000;stroke-width:5px;"/><path d="M51.447,314.041l39.913,7.853" style="fill:none;stroke:#000;stroke-width:5px;"/><path d="M50.03,318.836l39.914,7.853" style="fill:none;stroke:#000;stroke-width:2px;"/></g><path d="M72.234,363.728c24.553,-23.657 37.59,-25.347 31.47,9.498" style="fill:none;stroke:#000;stroke-width:5px;"/><path d="M62.706,264.508c0,0 -15.379,1.009 -24.701,14.511" style="fill:none;stroke:#fff;stroke-width:9.5px;"/></g></svg>