<?xml version="1.0" encoding="UTF-8" standalone="no"?><!DOCTYPE svg PUBLIC "-//W3C//DTD SVG 1.1//EN" "http://www.w3.org/Graphics/SVG/1.1/DTD/svg11.dtd"><svg width="100%" height="100%" viewBox="0 0 920 920" version="1.1" xmlns="http://www.w3.org/2000/svg" xmlns:xlink="http://www.w3.org/1999/xlink" xml:space="preserve" xmlns:serif="http://www.serif.com/" style="fill-rule:evenodd;clip-rule:evenodd;stroke-linecap:round;stroke-linejoin:round;stroke-miterlimit:1.5;"><rect id="Lucas" x="0" y="0" width="920" height="920" style="fill:none;"/><path d="M398.568,510.737l-2.557,79.053c38.636,35.187 83.279,40.599 132.312,1.117l-6.162,-78.129" style="fill:#ffd9bc;stroke:#000;stroke-width:7.5px;"/><path d="M400.234,561.141c-15.705,-25.401 -46.306,-40.328 -91.848,-40.333c-61.497,-0.006 -103.089,27.996 -94.396,47.333l186.244,-7Z" style="fill:#1f4d72;stroke:#000;stroke-width:7.5px;"/><path d="M515.673,561.141c14.851,-24.781 41.305,-40.328 86.848,-40.333c61.497,-0.006 100.193,32.663 94.395,47.333l-181.243,-7Z" style="fill:#1f4d72;stroke:#000;stroke-width:7.5px;"/><path d="M520.673,544.624c-41.726,31.494 -80.392,30.783 -119.243,1.297l0.138,-35.184c41.198,11.178 76.396,9.77 117.593,2.041" style="fill:#c0997b;"/><path d="M261.331,223.915c-12.87,66.752 -8.506,133.505 0.547,200.258c7.982,58.856 129.187,92.29 198.122,94.531c77.777,2.529 192.077,-41.354 195.753,-84.704c6.191,-73 9.564,-147.901 2.055,-242.507c-58.806,-34.588 -115.236,-51.759 -176.417,-46.961c-27.121,2.127 -50.457,13.243 -70.911,31.203c-21.542,-19.383 -51.487,-27.821 -86.321,-29.89c-37.028,-2.201 -55.555,40.981 -62.828,78.07Z" style="fill:#ffd9bc;stroke:#000;stroke-width:8px;"/><g><path d="M662.112,279.095c15.194,-20.231 34.767,-33.723 43.282,-4.454c10.73,36.884 0.614,70.963 -6.915,97.977c-3.238,38.587 -17.266,48.402 -40.367,38.516c4.832,-41.962 6.655,-85.688 4,-132.039Z" style="fill:#c0997b;stroke:#000;stroke-width:8px;"/><path d="M663.22,308.733c5.469,-32.844 50.958,-16.387 32.525,9.007c-10.396,14.322 -14.846,34.074 -11.658,50.438" style="fill:none;stroke:#000;stroke-width:5px;"/></g><path d="M274.196,323.274l372.38,0c-7.369,14.013 -32.724,34.129 -78.89,36.904c-37.165,2.234 -73.095,-1.656 -106.635,-17.411c-33.274,12.633 -67.631,20.883 -103.798,17.411c-48.762,-4.681 -71.57,-18.746 -83.057,-36.904Z" style="fill:#c0997b;"/><g><path d="M332.885,346.698l-8.625,21.48" style="fill:none;stroke:#000;stroke-width:2.5px;"/><path d="M355.319,346.698l-8.625,21.48" style="fill:none;stroke:#000;stroke-width:2.5px;"/><path d="M377.426,346.698l-8.625,21.48" style="fill:none;stroke:#000;stroke-width:2.5px;"/></g><g><path d="M536.779,346.698l-8.625,21.48" style="fill:none;stroke:#000;stroke-width:2.5px;"/><path d="M559.212,346.698l-8.625,21.48" style="fill:none;stroke:#000;stroke-width:2.5px;"/><path d="M581.32,346.698l-8.625,21.48" style="fill:none;stroke:#000;stroke-width:2.5px;"/></g><g><path d="M254.27,280.444c-15.194,-20.231 -36.754,-35.072 -45.269,-5.803c-10.73,36.884 -0.614,70.963 6.914,97.977c3.239,38.587 21.614,51.99 44.714,42.104c-4.832,-41.962 -9.014,-87.927 -6.359,-134.278Z" style="fill:#ffd9bc;stroke:#000;stroke-width:8px;"/><path d="M251.175,308.733c-5.469,-32.844 -50.959,-16.387 -32.526,9.007c10.396,14.322 14.846,34.074 11.659,50.438" style="fill:none;stroke:#000;stroke-width:5px;"/></g><path d="M249.482,316.921l5.896,86.685c-20.575,-50.285 -39.68,-99.158 -5.896,-86.685Z" style="fill:#c0997b;"/><path d="M568.272,152.642c42.708,57.911 44.373,119.864 41.69,170.632l-9.956,31.496c18.167,56.396 2.126,99.615 -24.438,138.766c27.848,-11.375 73.121,-35.674 74.878,-50.536c9.27,-78.444 8.767,-158.139 4.362,-251.507l-86.536,-38.851Z" style="fill:#c0997b;"/><g><path d="M315.075,294.185l105.935,3.757l-0.772,21.772l-105.935,-3.757l0.772,-21.772Z"/><path d="M416.249,324.821l-101.565,-3.623" style="fill:none;stroke:#000;stroke-width:5px;"/></g><g><path d="M607.318,294.185l-105.935,3.757l0.772,21.772l105.935,-3.757l-0.772,-21.772Z"/><path d="M506.144,324.821l101.566,-3.623" style="fill:none;stroke:#000;stroke-width:5px;"/></g><g id="Lunettes"><path d="M295.818,267.891c7.738,-17.137 111.568,-30.732 140.615,3.214c20.979,24.518 8.424,73.945 -1.521,90.464c-15.276,25.371 -126.897,24.384 -140.297,-8.125c-12.255,-29.733 -11.68,-57.019 1.203,-85.553Z" style="fill:#cfd2cf;fill-opacity:0.37;stroke:#000;stroke-width:2.5px;"/><path d="M445.92,286.401c-18.233,-47.91 -152.331,-49.76 -157.746,0" style="fill:none;stroke:#000;stroke-width:10px;"/><path d="M625.72,267.891c-7.738,-17.137 -111.568,-30.732 -140.614,3.214c-20.98,24.518 -8.425,73.945 1.52,90.464c15.276,25.371 126.898,24.384 140.297,-8.125c12.255,-29.733 11.68,-57.019 -1.203,-85.553Z" style="fill:#cfd2cf;fill-opacity:0.37;stroke:#000;stroke-width:2.5px;"/><path d="M475.618,286.401c18.233,-47.91 152.331,-49.76 157.746,0" style="fill:none;stroke:#000;stroke-width:10px;"/><path d="M604.255,272.086c0,0 18.779,12.716 16.917,34.857" style="fill:none;stroke:#fff;stroke-width:10px;"/><path d="M315.31,277.203c0,0 -18.779,12.716 -16.918,34.857" style="fill:none;stroke:#fff;stroke-width:10px;"/><path d="M449.026,301.826c7.746,-5.358 15.931,-5.839 24.687,0" style="fill:none;stroke:#000;stroke-width:10px;"/><path d="M631.866,284.528l29.783,-26.821l0,14.379l-27.687,27.64l-2.096,-15.198Z"/><path d="M289.156,286.401l-32.928,-28.694l0,14.379l30.308,27.64l2.62,-13.325Z"/></g><path d="M366.801,400.687c-4.542,23.04 55.323,31.471 90.896,2c47.138,29.678 98.817,22.726 89.805,-2" style="fill:none;stroke:#000;stroke-width:6.5px;"/><path d="M658.112,191.398l-0.304,0.095c1.87,35.602 3.445,62.398 4.304,76.593l24.485,-9.874c4.061,-47.147 19.903,-144.84 -14.51,-159.295c-122.172,-51.317 -220.679,-53.779 -338.807,-42.605l-60.588,-14.211l16.464,20.48l-56.675,-24.207l20.801,26.668l-29.698,4.758l19.754,22.731c-8.945,65.843 -8.719,118.288 -3.194,172.798l16.084,12.757c1.554,-59.98 14.981,-111.848 50.377,-126.591c43.976,-5.92 76.55,3.693 103.875,24.24c49.088,-48.226 145.33,-44.056 247.632,15.663Z" style="fill:#361500;stroke:#000;stroke-width:6.5px;"/><g id="Citrouille"><ellipse cx="373.024" cy="718.183" rx="105.592" ry="174.123" style="fill:#783d00;stroke:#060300;stroke-width:5px;"/><ellipse cx="534.661" cy="718.183" rx="105.592" ry="174.123" style="fill:#783d00;stroke:#000;stroke-width:5px;"/><ellipse cx="469.791" cy="718.183" rx="105.592" ry="174.123" style="fill:#783d00;stroke:#000;stroke-width:5px;"/><g><path d="M430.638,579.884c3.158,-19.961 105.696,-110.484 115.195,-108.97c23.979,3.822 43.736,26.333 16.089,29.672c-49.67,6 -88.938,86.989 -69.145,94.19l-62.139,-14.892Z" style="fill:#027818;stroke:#000;stroke-width:8px;"/><path d="M460.78,581.678c12.281,-35.522 36.42,-64.554 86.578,-100.454c11.918,2.657 16.941,6.877 20.281,14.652c-48.87,9.1 -71.215,40.124 -85.044,84.334l-21.815,1.468Z" style="fill:#002f09;"/></g><ellipse cx="614.938" cy="722.151" rx="145.147" ry="174.123" style="fill:#ff8100;stroke:#020100;stroke-width:5px;"/><path d="M599.601,892.306c30.572,2.927 56.336,-4.969 80.151,-17.251c50.408,-35.18 69.38,-82.575 76.171,-134.702c-32.133,67.202 -67.804,113.041 -114.9,89.878l-41.422,62.075Z" style="fill:#783d00;"/><ellipse cx="302.42" cy="722.151" rx="145.147" ry="174.123" style="fill:#ff8100;stroke:#000;stroke-width:5px;"/><path d="M320.948,894.194c-30.573,2.927 -57.807,-4.97 -81.623,-17.252c-50.407,-35.18 -70.85,-82.574 -77.641,-134.702c32.134,67.203 81.043,119.551 128.14,96.389l31.124,55.565Z" style="fill:#783d00;"/><ellipse cx="553.16" cy="739.336" rx="105.592" ry="174.123" style="fill:#ff8100;stroke:#000;stroke-width:5px;"/><path d="M481.816,819.577c36.637,27.353 61.677,72.504 151.354,27.379c-31.586,58.957 -73.312,82.665 -119.316,49.319c-8.502,-6.163 -27.467,-62.926 -32.038,-76.698Z" style="fill:#783d00;"/><ellipse cx="375.865" cy="739.336" rx="105.592" ry="174.123" style="fill:#ff8100;stroke:#000;stroke-width:5px;"/><path d="M422.747,827.947c-40.552,37.812 -42.067,78.502 -126.024,18.1c20.998,53.533 78.703,87.082 125.201,45.639c7.839,-6.987 -3.748,-49.967 0.823,-63.739Z" style="fill:#783d00;"/><ellipse cx="469.791" cy="739.336" rx="83.369" ry="174.123" style="fill:#ff8100;stroke:#000;stroke-width:5px;"/><g><path d="M435.083,723.631c13.782,-8.391 55.479,-3.879 69.415,-1.204c-5.702,124.986 -69.129,134.474 -69.415,1.204Z" style="fill:#921c00;stroke:#000;stroke-width:5px;"/></g><path d="M445.829,790.087c10.438,32.524 30.576,38.683 43.573,1.182c-9.033,-16.671 -34.348,-15.439 -43.573,-1.182Z" style="fill:#ff3600;"/><path d="M607.119,565.212c0,0 46.263,-3.308 73.747,30.632" style="fill:none;stroke:#fff;stroke-width:8px;"/><path d="M252.367,580.484c0,0 19.336,-17.78 50.053,-15.36" style="fill:none;stroke:#fff;stroke-width:8px;"/><path d="M375.871,580.484c0,0 -34.547,1.535 -41.5,22.361" style="fill:none;stroke:#fff;stroke-width:8px;"/><path d="M447.568,595.844c0,0 24.714,-21.703 47.783,2.59" style="fill:none;stroke:#fff;stroke-width:8px;"/><path d="M566.228,580.484c0,0 38.766,16.082 40.891,44.721" style="fill:none;stroke:#fff;stroke-width:8px;"/><path d="M405.879,843.336c39.91,59.865 83.982,57.662 127.824,0c-34.693,88.006 -91.37,90.016 -127.824,0Z" style="fill:#783d00;"/><g><path d="M427.562,648.376l-98.042,-39.157l-7.648,19.149l98.042,39.157l7.648,-19.149Z" style="fill:#0d0900;"/><path d="M420.406,652.376l-99.011,36.641l4.965,13.415l99.011,-36.64l-4.965,-13.416Z" style="fill:#0d0900;"/></g><g><path d="M500.077,648.376l98.042,-39.157l7.648,19.149l-98.043,39.157l-7.647,-19.149Z" style="fill:#0d0900;"/><path d="M507.233,652.376l99.011,36.641l-4.965,13.415l-99.011,-36.64l4.965,-13.416Z" style="fill:#0d0900;"/></g><g><path d="M408.309,702.432l16.063,-25.028" style="fill:none;stroke:#ff1700;stroke-width:7.5px;"/><path d="M439.872,702.432l16.063,-25.028" style="fill:none;stroke:#ff1700;stroke-width:7.5px;"/><path d="M471.434,702.432l16.063,-25.028" style="fill:none;stroke:#ff1700;stroke-width:7.5px;"/><path d="M495.628,702.432l16.063,-25.028" style="fill:none;stroke:#ff1700;stroke-width:7.5px;"/></g><path d="M256.782,565.212c-6.149,91.386 -46.424,142.984 -71.257,146.81c-10.433,1.607 -19.591,-0.885 -26.816,-9.59c14.605,-74.596 44.268,-125.167 98.073,-137.22Z" style="fill:#783d00;"/><ellipse cx="255.254" cy="599.21" rx="18.119" ry="18.375" style="fill:#783d00;"/><path d="M659.91,565.212c6.148,91.386 46.424,142.984 71.256,146.81c10.433,1.607 19.592,-0.885 26.817,-9.59c-14.606,-74.596 -44.269,-125.167 -98.073,-137.22Z" style="fill:#783d00;"/><ellipse cx="661.438" cy="599.21" rx="18.119" ry="18.375" style="fill:#783d00;"/></g><g><path d="M225.113,548.028c12.321,-7.402 24.643,-8.588 36.965,0c12.627,8.801 9.663,29.001 9.332,35.703c-0.885,17.912 -13.757,17.215 -27.153,6.418c-9.813,-14.483 -17.533,-22.617 -32.804,-30.246l13.66,-11.875Z" style="fill:#ffd9bc;stroke:#000;stroke-width:7.5px;"/><path d="M225.969,552.126c9.066,1.261 16.029,6.217 18.814,17.793c2.688,11.168 6.215,17.121 9.305,22.328c-7.694,-1.162 -18.121,-16.082 -28.119,-40.121Z" style="fill:#c0997b;"/><path d="M106.902,642.294c-4.784,-53.296 87.216,-110.166 101.918,-94.266c12.664,4.166 22.197,10.472 24.243,21.891l14.635,39.242c-1.613,9.529 -11.297,16.831 -20.818,9.734c-7.325,-24.495 -15.583,-30.368 -26.031,-30.521l-10.842,-2.534l10.842,11.974c9.52,9.909 19.64,21.182 20.604,29.487c4.552,11.538 -3.039,15.013 -14.774,14.426c-5.462,-4.351 -11.342,-13.636 -23.482,-18.863l-25.924,-14.742c12.558,12.295 23.735,23.671 28.598,30.851l14.41,13.403c4.828,9.807 -3.054,17.448 -14.403,16.416l-20.198,-18.15l-30.63,-16.868l22.223,23.87l23.935,18.668c4.271,11.747 -2.529,15.682 -13.924,12.47c-3.113,6.38 -58.733,-28.113 -60.382,-46.488Z" style="fill:#ffd9bc;stroke:#000;stroke-width:7.5px;"/><path d="M170.457,648.014c4.433,-2.302 9.774,-3.329 10.39,-7.048c2.399,6.349 -2.463,7.741 -10.39,7.048Z" style="fill:#c0997b;"/><path d="M178.21,678.416c0.806,3.275 0.877,2.708 0.573,5.458c-10.316,-5.338 -20.601,-11.926 -30.846,-20.135c-6.043,-5.575 -11.257,-13.457 -16.444,-21.417l0,-6.853l23.535,24.852l23.182,18.095Z" style="fill:#c0997b;"/><path d="M203.512,570.57c-0.168,-12.366 8.216,-16.703 20.635,-9.631c-8.195,-0.714 -16.286,4.053 -20.635,9.631Z" style="fill:#c0997b;"/><path d="M234.63,617.897c-4.327,-5.8 -16.936,-33.775 -23.177,-34.54c-10.153,-1.246 -12.436,-3.103 -20.871,-1.179l10.815,3.019c15.945,0.988 21.748,14.401 28.308,31.388c1.642,1.307 3.284,1.772 4.925,1.312Z" style="fill:#c0997b;"/><path d="M216.471,623.009c1.634,4.738 2.945,9.269 2.743,12.433c-3.766,3.483 -8.227,4.978 -11.993,2.287c-9.917,-12.554 -26.573,-19.899 -41.608,-28.923c12.705,5.145 25.342,10.906 37.5,20.972c11.703,7.441 14.091,2.423 13.358,-6.769Z" style="fill:#c0997b;"/></g><g><path d="M694.887,548.028c-12.321,-7.402 -24.643,-8.588 -36.965,0c-12.627,8.801 -9.663,29.001 -9.332,35.703c0.885,17.912 13.757,17.215 27.153,6.418c9.813,-14.483 17.533,-22.617 32.804,-30.246l-13.66,-11.875Z" style="fill:#ffd9bc;stroke:#000;stroke-width:7.5px;"/><path d="M694.031,552.126c-9.066,1.261 -16.029,6.217 -18.814,17.793c-2.688,11.168 -6.215,17.121 -9.305,22.328c7.694,-1.162 18.121,-16.082 28.119,-40.121Z" style="fill:#c0997b;"/><path d="M813.098,642.294c4.784,-53.296 -87.216,-110.166 -101.918,-94.266c-12.664,4.166 -22.197,10.472 -24.243,21.891l-14.635,39.242c1.613,9.529 11.297,16.831 20.818,9.734c7.325,-24.495 15.583,-30.368 26.031,-30.521l10.842,-2.534l-10.842,11.974c-9.52,9.909 -19.64,21.182 -20.604,29.487c-4.552,11.538 3.039,15.013 14.774,14.426c5.462,-4.351 11.342,-13.636 23.482,-18.863l25.924,-14.742c-12.558,12.295 -23.735,23.671 -28.598,30.851l-14.41,13.403c-4.828,9.807 3.054,17.448 14.403,16.416l20.198,-18.15l30.63,-16.868l-22.223,23.87l-23.935,18.668c-4.271,11.747 2.529,15.682 13.924,12.47c3.113,6.38 58.733,-28.113 60.382,-46.488Z" style="fill:#ffd9bc;stroke:#000;stroke-width:7.5px;"/><path d="M749.543,648.014c-4.433,-2.302 -9.774,-3.329 -10.39,-7.048c-2.399,6.349 2.463,7.741 10.39,7.048Z" style="fill:#c0997b;"/><path d="M741.79,678.416c-0.806,3.275 -0.877,2.708 -0.573,5.458c10.316,-5.338 20.601,-11.926 30.846,-20.135c6.043,-5.575 11.257,-13.457 16.444,-21.417l0,-6.853l-23.535,24.852l-23.182,18.095Z" style="fill:#c0997b;"/><path d="M716.488,570.57c0.168,-12.366 -8.216,-16.703 -20.635,-9.631c8.195,-0.714 16.286,4.053 20.635,9.631Z" style="fill:#c0997b;"/><path d="M685.37,617.897c4.327,-5.8 16.936,-33.775 23.177,-34.54c10.153,-1.246 12.436,-3.103 20.871,-1.179l-10.815,3.019c-15.945,0.988 -21.748,14.401 -28.308,31.388c-1.642,1.307 -3.284,1.772 -4.925,1.312Z" style="fill:#c0997b;"/><path d="M703.529,623.009c-1.634,4.738 -2.945,9.269 -2.743,12.433c3.766,3.483 8.227,4.978 11.993,2.287c9.917,-12.554 26.573,-19.899 41.608,-28.923c-12.705,5.145 -25.342,10.906 -37.5,20.972c-11.703,7.441 -14.091,2.423 -13.358,-6.769Z" style="fill:#c0997b;"/></g><path d="M565.369,146.967c-13.285,-26.63 -26.236,-64.608 -53.155,-88.542c79.814,7.85 130.2,36.946 178.013,89.171c-0.088,44.799 -3.299,76.933 -6.63,109.616l-20.485,9.874c0.501,-17.058 -0.216,-38.182 -0.674,-77.598c-29.017,-17.62 -62.319,-30.817 -97.069,-42.521Z" style="fill:#190a00;"/></svg>