<?xml version="1.0" encoding="UTF-8" standalone="no"?><!DOCTYPE svg PUBLIC "-//W3C//DTD SVG 1.1//EN" "http://www.w3.org/Graphics/SVG/1.1/DTD/svg11.dtd"><svg width="100%" height="100%" viewBox="0 0 920 920" version="1.1" xmlns="http://www.w3.org/2000/svg" xmlns:xlink="http://www.w3.org/1999/xlink" xml:space="preserve" xmlns:serif="http://www.serif.com/" style="fill-rule:evenodd;clip-rule:evenodd;stroke-linecap:round;stroke-linejoin:round;stroke-miterlimit:1.5;"><rect id="Manon" x="0" y="0" width="920" height="920" style="fill:none;"/><clipPath id="_clip1"><rect x="0" y="0" width="920" height="920"/></clipPath><g clip-path="url(#_clip1)"><path d="M567.745,594.6l-48.691,0l-141.71,7.717c60.811,43.937 128.195,33.703 190.401,-7.717Z" style="fill:#830000;stroke:#000;stroke-width:8px;"/><g><path d="M422.176,575.445l-4.25,72.561c32.809,28.963 75.311,20.516 105.744,-0.991l-9.596,-108.981l-91.898,37.411Z" style="fill:#ffd9bc;stroke:#000;stroke-width:7.5px;"/><path d="M424.994,584.22l89.962,-2.091l1.448,27.797c-44.981,32.101 -72.624,43.608 -92.828,9.915l1.418,-35.621Z" style="fill:#c0997b;"/></g><g><path d="M220.406,297.191c13.972,124.539 18.055,298.793 10.592,398.759c27.149,-115.248 30.349,-265.391 24.768,-428.742l-35.36,29.983Z" style="fill:#181818;stroke:#000;stroke-width:3px;"/><path d="M290.724,503.216c-13.287,53.634 -7.672,127.311 -4.15,163.384c-18.204,-49.517 -31.593,-104.618 -33.742,-170.719l25.649,-14.302l12.243,21.637Z"/></g><path d="M536.565,69.807c48.916,-55.539 101.689,-46.141 160.73,50.535c99.953,163.665 57.245,317.569 34.907,451.032c-4.444,-59.804 -15.323,-90.526 -28.922,-108.955c1.048,75.647 17.411,161.038 39.073,183.819c-28.366,-9.709 -55.05,-84.206 -65.527,-160.901c-11.208,43.748 -11.055,80.226 0,109.724c-13.957,-18.598 -24.545,-43.418 -23.123,-90.411c-3.792,28.964 -9.446,50.775 -16.795,66.072c4.649,-28.946 1.089,-62.274 -10.679,-99.984c1.869,-135.099 -37.862,-272.216 -89.664,-400.931Z" style="fill:#181818;stroke:#000;stroke-width:3px;"/><path d="M240.897,250.59c5.576,83.936 23.642,157.896 17.175,230.989c-3.555,40.172 101.828,112.385 158.927,112.46c138.468,0.183 223.271,-42.55 239.321,-105.293c16.067,-62.812 16.607,-143.482 8.127,-234.869c-138.428,-80.92 -278.941,-101.448 -423.55,-3.287Z" style="fill:#ffd9bc;stroke:#000;stroke-width:7.5px;"/><path d="M497.714,226.095c31.829,24.117 59.986,49.138 64.139,80.064c0.259,8.74 -0.911,15.588 -3.186,20.974l44.01,13.866l-26.439,-86.818l-78.524,-28.086Z" style="fill:#c0997b;"/><path d="M561.149,415.419c16.085,32.95 24.44,125.463 -26.064,162.368c37.706,-9.912 70.738,-25.808 102.411,-53.212l-13.209,-218.416l-42.077,20.995l-21.061,88.265Z" style="fill:#c0997b;"/><path d="M390.83,201.779c-23.99,71.373 -70.486,113.524 -132.828,169.407l-13.381,-108.945c66.237,-63.779 98.526,-98.396 146.209,-60.462Z" style="fill:#c0997b;"/><path d="M714.477,325.227c-8.997,-7.296 -35.51,14.37 -44.597,7.464c-136.769,-103.953 -266.984,-183.108 -448.678,-90.913c-32.346,12.547 -54.674,52.75 -79.691,101.42c22.641,-49.145 64.028,-265.769 293.373,-263.598c232.266,-47.973 276.09,82.108 279.593,245.627Z" style="stroke:#000;stroke-width:3px;"/><g><path d="M669.88,332.691c15.194,-20.231 35.766,-33.723 44.281,-4.453c10.73,36.883 0.615,70.962 -6.914,97.976c-3.239,38.587 -20.267,48.402 -43.367,38.516c4.832,-41.962 8.655,-85.688 6,-132.039Z" style="fill:#c0997b;stroke:#000;stroke-width:8px;"/><path d="M671.988,362.329c5.469,-32.844 50.958,-16.387 32.525,9.007c-10.396,14.322 -14.846,34.074 -11.659,50.438" style="fill:#c0997b;stroke:#000;stroke-width:5px;"/></g><g><path d="M392.059,408.219c1.611,-10.044 2.043,-22.762 0,-41.089c-49.008,-31.413 -106.419,-54.381 -100.242,-3.753c2.442,19.603 4.884,31.036 7.326,40.042c17.454,12.582 50.895,12.176 92.916,4.8Z" style="fill:#fff;"/><path d="M392.059,367.13c-66.462,-56.344 -121.18,-47.41 -100.242,-3.753c-9.468,-54.994 86.8,-5.459 100.242,3.753Z" style="stroke:#000;stroke-width:0.95px;"/><path d="M342.791,339.952c-36.58,-11.52 -27.125,72.663 11.288,65.644c37.199,-6.796 33.081,-51.67 -11.288,-65.644Z" style="fill:#453200;stroke:#000;stroke-width:7px;"/><circle cx="352.759" cy="366.834" r="13.087"/><circle cx="339.672" cy="374.275" r="5.646" style="fill:#fff;"/><path d="M299.158,403.045c20.972,11.176 64.205,7.842 92.901,5.174c-35.639,12.177 -93.989,8.473 -92.901,-5.174Z" style="fill:#171100;stroke:#000;stroke-width:0.95px;"/></g><g><path d="M478.984,408.995c-1.945,-10.044 -2.467,-22.761 0,-41.088c47.858,-39.955 123.236,-58.358 121.05,-3.753c-2.949,19.603 -5.898,31.036 -8.847,40.042c-21.077,12.582 -61.459,12.176 -112.203,4.799Z" style="fill:#fff;"/><path d="M478.984,367.907c56.02,-59.623 139.643,-48.315 121.05,-3.753c4.86,-58.099 -113.6,-9.608 -121.05,3.753Z" style="stroke:#000;stroke-width:0.95px;"/><path d="M550.578,338.761c38.239,2.93 31.588,78.544 -11.763,68.263c-39.037,-9.258 -43.763,-72.518 11.763,-68.263Z" style="fill:#453200;stroke:#000;stroke-width:7px;"/><circle cx="546.256" cy="365.643" r="13.087"/><circle cx="533.169" cy="373.083" r="5.646" style="fill:#fff;"/><path d="M591.169,403.822c-25.326,11.176 -77.533,7.842 -112.185,5.173c43.037,12.178 113.498,8.474 112.185,-5.173Z" style="fill:#171100;stroke:#000;stroke-width:0.95px;"/></g><path d="M466,326.91c-0.73,8.52 4.334,12.081 12.036,13.384c29.554,-26.946 80.311,-28.204 124.641,-33.792c-52.795,-1.482 -95.827,1.226 -136.677,20.408Z" style="fill:#0a0700;stroke:#000;stroke-width:3px;"/><path d="M282.279,316.871c33.696,1.997 77.142,-9.947 110.208,23.423c1.689,-9.039 4.453,-10.848 0.477,-13.384c-38.05,-29.949 -76.518,-11.628 -110.685,-10.039Z" style="stroke:#000;stroke-width:3px;"/><path d="M519.081,460.128l0.015,0.013l0.65,1.415l-0.485,1.577l-0.006,0.008l-0.238,0.31l-0.24,0.311l-0.24,0.309l-0.24,0.308l-0.241,0.307l-0.241,0.306l-0.241,0.304l-0.241,0.304l-0.241,0.302l-0.242,0.301l-0.241,0.3l-0.242,0.299l-0.243,0.297l-0.242,0.297l-0.243,0.295l-0.242,0.294l-0.243,0.293l-0.244,0.292l-0.243,0.29l-0.244,0.29l-0.244,0.288l-0.244,0.287l-0.244,0.286l-0.244,0.285l-0.245,0.283l-0.245,0.283l-0.156,0.179l-0.091,0.1l-0.25,0.276l-0.25,0.275l-0.25,0.273l-0.25,0.272l-0.251,0.271l-0.25,0.27l-0.251,0.269l-0.251,0.268l-0.252,0.266l-0.251,0.265l-0.252,0.264l-0.252,0.263l-0.252,0.262l-0.252,0.261l-0.253,0.26l-0.252,0.258l-0.253,0.257l-0.253,0.257l-0.253,0.255l-0.254,0.253l-0.253,0.253l-0.254,0.252l-0.254,0.25l-0.254,0.25l-0.255,0.248l-0.148,0.144l-0.108,0.101l-0.259,0.241l-0.259,0.241l-0.259,0.238l-0.26,0.238l-0.259,0.237l-0.26,0.236l-0.26,0.234l-0.26,0.233l-0.26,0.233l-0.26,0.231l-0.261,0.23l-0.261,0.228l-0.26,0.228l-0.094,0.081l-0.17,0.142l-0.266,0.221l-0.265,0.219l-0.266,0.218l-0.266,0.217l-0.265,0.215l-0.266,0.215l-0.267,0.214l-0.266,0.212l-0.266,0.211l-0.267,0.21l-0.267,0.209l-0.267,0.208l-0.15,0.117l-0.118,0.088l-0.27,0.201l-0.271,0.2l-0.271,0.199l-0.27,0.198l-0.271,0.197l-0.271,0.195l-0.271,0.195l-0.271,0.193l-0.272,0.192l-0.271,0.191l-0.272,0.19l-0.271,0.189l-0.272,0.188l-0.272,0.187l-0.272,0.185l-0.272,0.185l-0.272,0.183l-0.272,0.182l-0.272,0.181l-0.273,0.18l-0.272,0.179l-0.273,0.178l-0.273,0.176l-0.273,0.176l-0.273,0.174l-0.273,0.174l-0.273,0.172l-0.273,0.171l-0.274,0.17l-0.273,0.169l-0.274,0.168l-0.273,0.167l-0.274,0.166l-0.274,0.165l-0.274,0.163l-0.274,0.163l-0.153,0.089l-0.122,0.072l-0.275,0.159l-0.275,0.158l-0.275,0.157l-0.275,0.156l-0.276,0.155l-0.275,0.154l-0.276,0.153l-0.275,0.151l-0.276,0.151l-0.276,0.149l-0.276,0.149l-0.276,0.147l-0.276,0.147l-0.277,0.145l-0.276,0.144l-0.276,0.143l-0.277,0.142l-0.277,0.141l-0.276,0.14l-0.277,0.139l-0.277,0.138l-0.277,0.137l-0.278,0.135l-0.277,0.135l-0.277,0.134l-0.278,0.132l-0.277,0.132l-0.278,0.13l-0.278,0.129l-0.277,0.129l-0.278,0.127l-0.278,0.126l-0.279,0.125l-0.278,0.125l-0.278,0.123l-0.278,0.122l-0.279,0.121l-0.279,0.12l-0.278,0.119l-0.279,0.118l-0.279,0.117l-0.279,0.116l-0.279,0.114l-0.279,0.114l-0.28,0.113l-0.279,0.112l-0.28,0.11l-0.279,0.11l-0.28,0.109l-0.114,0.044l-0.166,0.063l-0.28,0.106l-0.28,0.105l-0.28,0.103l-0.281,0.103l-0.28,0.102l-0.281,0.101l-0.281,0.1l-0.281,0.098l-0.28,0.098l-0.281,0.097l-0.281,0.096l-0.281,0.094l-0.282,0.094l-0.281,0.093l-0.281,0.091l-0.282,0.091l-0.281,0.09l-0.282,0.088l-0.282,0.088l-0.282,0.087l-0.282,0.086l-0.281,0.084l-0.283,0.084l-0.282,0.083l-0.282,0.082l-0.282,0.08l-0.283,0.08l-0.282,0.079l-0.283,0.078l-0.282,0.077l-0.283,0.076l-0.283,0.075l-0.283,0.074l-0.283,0.073l-0.283,0.072l-0.283,0.071l-0.283,0.07l-0.284,0.069l-0.283,0.068l-0.283,0.067l-0.284,0.066l-0.284,0.065l-0.283,0.065l-0.284,0.063l-0.284,0.062l-0.284,0.062l-0.284,0.06l-0.284,0.06l-0.284,0.058l-0.285,0.058l-0.284,0.057l-0.284,0.056l-0.285,0.054l-0.284,0.054l-0.285,0.053l-0.285,0.052l-0.285,0.051l-0.285,0.05l-0.285,0.049l-0.285,0.049l-0.285,0.047l-0.285,0.046l-0.285,0.046l-0.286,0.044l-0.285,0.044l-0.286,0.043l-0.285,0.041l-0.286,0.041l-0.286,0.04l-0.285,0.039l-0.286,0.038l-0.286,0.037l-0.286,0.037l-0.286,0.035l-0.287,0.035l-0.286,0.033l-0.286,0.033l-0.287,0.032l-0.286,0.031l-0.287,0.03l-0.286,0.029l-0.287,0.028l-0.287,0.027l-0.287,0.027l-0.287,0.025l-0.287,0.025l-0.287,0.023l-0.287,0.023l-0.287,0.022l-0.288,0.021l-0.287,0.021l-0.288,0.019l-0.287,0.018l-0.288,0.018l-0.287,0.017l-0.288,0.016l-0.288,0.015l-0.288,0.014l-0.288,0.013l-0.288,0.012l-0.288,0.012l-0.288,0.011l-0.289,0.009l-0.288,0.009l-0.288,0.009l-0.289,0.007l-0.288,0.006l-0.289,0.006l-0.289,0.005l-0.289,0.003l-0.288,0.003l-0.289,0.003l-0.289,0.001l-0.289,0l-0.29,0l-0.289,-0.001l-0.289,-0.002l-0.29,-0.003l-0.289,-0.003l-0.29,-0.005l-0.289,-0.005l-0.29,-0.006l-0.29,-0.007l-0.29,-0.008l-0.289,-0.009l-0.022,0l-0.268,-0.009l-0.29,-0.011l-0.291,-0.012l-0.29,-0.012l-0.29,-0.013l-0.29,-0.014l-0.291,-0.015l-0.29,-0.016l-0.291,-0.016l-0.29,-0.017l-0.291,-0.018l-0.291,-0.019l-0.291,-0.02l-0.291,-0.02l-0.291,-0.021l-0.291,-0.022l-0.291,-0.023l-0.291,-0.023l-0.291,-0.025l-0.294,-0.025l-0.581,-0.052l-0.583,-0.056l-0.583,-0.058l-0.584,-0.062l-0.585,-0.065l-0.584,-0.068l-0.585,-0.071l-0.585,-0.074l-0.585,-0.077l-0.586,-0.08l-0.586,-0.083l-0.586,-0.086l-0.587,-0.088l-0.587,-0.092l-0.587,-0.095l-0.588,-0.097l-0.588,-0.101l-0.588,-0.103l-0.589,-0.106l-0.589,-0.11l-0.589,-0.111l-0.59,-0.115l-0.59,-0.118l-0.59,-0.12l-0.591,-0.123l-0.591,-0.126l-0.591,-0.129l-0.592,-0.131l-0.592,-0.134l-0.592,-0.137l-0.593,-0.14l-0.593,-0.142l-0.594,-0.145l-0.594,-0.147l-0.594,-0.15l-0.595,-0.153l-0.595,-0.156l-0.595,-0.158l-0.596,-0.16l-0.596,-0.163l-0.597,-0.166l-0.597,-0.169l-0.597,-0.17l-0.598,-0.174l-0.598,-0.176l-0.599,-0.178l-0.599,-0.181l-0.599,-0.183l-0.6,-0.186l-0.6,-0.188l-0.601,-0.191l-0.601,-0.193l-0.282,-0.092l-0.319,-0.104l-0.602,-0.198l-0.602,-0.201l-0.603,-0.203l-0.603,-0.206l-0.603,-0.207l-0.604,-0.211l-0.604,-0.212l-0.605,-0.215l-0.605,-0.217l-0.606,-0.219l-0.606,-0.222l-0.606,-0.224l-0.607,-0.226l-0.608,-0.228l-0.608,-0.23l-0.608,-0.233l-0.609,-0.235l-0.609,-0.237l-0.61,-0.239l-0.61,-0.242l-0.611,-0.243l-0.611,-0.246l-0.612,-0.248l-0.612,-0.249l-0.613,-0.252l-0.613,-0.254l-0.614,-0.256l-0.614,-0.258l-0.615,-0.261l-0.615,-0.262l-0.616,-0.264l-0.616,-0.266l-0.616,-0.268l-0.618,-0.27l-0.617,-0.272l-0.619,-0.274l-0.618,-0.276l-0.62,-0.278l-0.62,-0.28l-0.62,-0.282l-0.621,-0.283l-0.621,-0.286l-0.622,-0.287l-0.623,-0.289l-0.623,-0.291l-0.611,-0.287l-0.013,-0.006l-0.622,-0.294l-0.009,-0.004l-1.088,-1.192l0.046,-1.597l0.008,-0.019l1.177,-1.082l1.613,0.04l0.635,0.28l0.623,0.272l0.623,0.271l0.621,0.269l0.621,0.267l0.62,0.266l0.62,0.263l0.619,0.262l0.618,0.259l0.617,0.258l0.616,0.255l0.616,0.254l0.615,0.252l0.615,0.25l0.613,0.247l0.613,0.246l0.612,0.244l0.612,0.242l0.61,0.239l0.61,0.238l0.61,0.236l0.608,0.233l0.608,0.231l0.607,0.23l0.606,0.227l0.606,0.225l0.605,0.223l0.604,0.22l0.604,0.219l0.602,0.216l0.602,0.215l0.602,0.212l0.6,0.209l0.6,0.208l0.599,0.205l0.599,0.203l0.597,0.201l0.597,0.199l0.596,0.196l0.596,0.194l0.595,0.192l0.594,0.189l0.593,0.187l0.593,0.185l0.592,0.182l0.591,0.18l0.591,0.178l0.313,0.093l0.276,0.082l0.589,0.173l0.589,0.171l0.587,0.169l0.587,0.166l0.586,0.163l0.585,0.162l0.585,0.158l0.584,0.156l0.583,0.154l0.583,0.151l0.582,0.149l0.581,0.146l0.58,0.144l0.58,0.141l0.579,0.138l0.578,0.136l0.578,0.134l0.577,0.13l0.576,0.129l0.576,0.125l0.575,0.123l0.574,0.12l0.573,0.118l0.573,0.115l0.572,0.112l0.571,0.11l0.571,0.107l0.57,0.104l0.569,0.102l0.569,0.098l0.568,0.096l0.567,0.094l0.566,0.09l0.566,0.088l0.565,0.085l0.565,0.082l0.564,0.08l0.563,0.076l0.562,0.074l0.562,0.071l0.561,0.068l0.56,0.065l0.56,0.063l0.559,0.059l0.558,0.057l0.558,0.054l0.557,0.05l0.556,0.048l0.556,0.045l0.555,0.042l0.554,0.039l0.556,0.037l0.274,0.017l0.277,0.016l0.276,0.015l0.276,0.015l0.276,0.014l0.276,0.013l0.275,0.013l0.276,0.011l0.275,0.011l0.275,0.011l0.275,0.009l0.275,0.009l0.274,0.008l0.275,0.007l0.274,0.006l0.274,0.006l0.274,0.005l0.274,0.004l0.273,0.003l0.253,0.003l0.021,0l0.273,0.003l0.273,0.001l0.273,0.001l0.273,0l0.273,-0.001l0.272,-0.001l0.273,-0.002l0.272,-0.003l0.272,-0.004l0.272,-0.005l0.272,-0.005l0.271,-0.006l0.272,-0.007l0.271,-0.008l0.271,-0.008l0.271,-0.01l0.271,-0.01l0.271,-0.011l0.27,-0.011l0.271,-0.013l0.27,-0.013l0.27,-0.014l0.27,-0.015l0.27,-0.015l0.269,-0.017l0.27,-0.017l0.269,-0.018l0.269,-0.019l0.269,-0.02l0.269,-0.02l0.269,-0.021l0.269,-0.022l0.268,-0.023l0.268,-0.024l0.268,-0.024l0.269,-0.026l0.267,-0.026l0.268,-0.027l0.268,-0.028l0.267,-0.028l0.268,-0.029l0.267,-0.031l0.267,-0.031l0.267,-0.032l0.266,-0.032l0.267,-0.034l0.267,-0.034l0.266,-0.035l0.266,-0.036l0.266,-0.037l0.266,-0.038l0.266,-0.038l0.266,-0.04l0.265,-0.04l0.266,-0.041l0.265,-0.042l0.265,-0.042l0.265,-0.044l0.265,-0.044l0.265,-0.046l0.264,-0.046l0.265,-0.047l0.264,-0.047l0.264,-0.049l0.264,-0.05l0.264,-0.05l0.264,-0.051l0.264,-0.052l0.263,-0.053l0.264,-0.054l0.263,-0.055l0.263,-0.055l0.263,-0.056l0.263,-0.058l0.263,-0.058l0.263,-0.059l0.263,-0.06l0.262,-0.06l0.262,-0.062l0.263,-0.062l0.262,-0.064l0.262,-0.064l0.262,-0.065l0.261,-0.066l0.262,-0.067l0.262,-0.068l0.261,-0.068l0.261,-0.07l0.261,-0.07l0.262,-0.071l0.26,-0.073l0.261,-0.073l0.261,-0.074l0.261,-0.075l0.26,-0.075l0.261,-0.077l0.26,-0.078l0.26,-0.078l0.26,-0.08l0.26,-0.08l0.26,-0.081l0.26,-0.082l0.259,-0.083l0.26,-0.084l0.259,-0.085l0.26,-0.086l0.259,-0.086l0.259,-0.088l0.259,-0.088l0.259,-0.09l0.259,-0.09l0.258,-0.091l0.259,-0.093l0.259,-0.093l0.258,-0.094l0.258,-0.095l0.259,-0.096l0.258,-0.097l0.258,-0.097l0.258,-0.099l0.258,-0.1l0.257,-0.101l0.258,-0.101l0.258,-0.103l0.257,-0.103l0.152,-0.062l0.106,-0.042l0.257,-0.105l0.258,-0.105l0.257,-0.107l0.257,-0.107l0.258,-0.109l0.257,-0.109l0.257,-0.11l0.257,-0.111l0.257,-0.113l0.257,-0.113l0.257,-0.114l0.256,-0.115l0.257,-0.116l0.257,-0.117l0.256,-0.119l0.256,-0.119l0.257,-0.12l0.256,-0.121l0.256,-0.122l0.256,-0.123l0.256,-0.123l0.256,-0.125l0.256,-0.126l0.256,-0.127l0.256,-0.128l0.255,-0.129l0.256,-0.13l0.255,-0.131l0.256,-0.132l0.255,-0.133l0.255,-0.134l0.256,-0.135l0.255,-0.135l0.255,-0.137l0.255,-0.138l0.255,-0.139l0.255,-0.14l0.255,-0.141l0.254,-0.142l0.255,-0.143l0.255,-0.144l0.254,-0.145l0.255,-0.147l0.254,-0.147l0.255,-0.148l0.254,-0.149l0.254,-0.15l0.254,-0.152l0.255,-0.152l0.113,-0.068l0.141,-0.085l0.255,-0.153l0.254,-0.154l0.255,-0.156l0.254,-0.156l0.255,-0.158l0.254,-0.158l0.255,-0.16l0.254,-0.16l0.254,-0.162l0.254,-0.163l0.254,-0.164l0.254,-0.165l0.255,-0.166l0.254,-0.167l0.254,-0.168l0.253,-0.169l0.254,-0.17l0.254,-0.172l0.254,-0.172l0.254,-0.173l0.253,-0.175l0.254,-0.176l0.254,-0.176l0.253,-0.178l0.254,-0.179l0.253,-0.18l0.253,-0.181l0.254,-0.182l0.253,-0.183l0.253,-0.185l0.254,-0.185l0.253,-0.187l0.253,-0.187l0.253,-0.189l0.253,-0.19l0.253,-0.191l0.111,-0.084l0.144,-0.106l0.256,-0.188l0.257,-0.19l0.256,-0.191l0.256,-0.192l0.257,-0.194l0.256,-0.194l0.256,-0.196l0.257,-0.196l0.256,-0.198l0.256,-0.199l0.256,-0.2l0.257,-0.201l0.164,-0.13l0.093,-0.071l0.261,-0.198l0.26,-0.2l0.261,-0.2l0.26,-0.202l0.261,-0.203l0.261,-0.204l0.26,-0.206l0.261,-0.206l0.261,-0.208l0.26,-0.209l0.261,-0.21l0.261,-0.211l0.261,-0.212l0.108,-0.089l0.155,-0.122l0.265,-0.21l0.265,-0.211l0.265,-0.213l0.266,-0.214l0.265,-0.214l0.265,-0.216l0.266,-0.218l0.265,-0.218l0.266,-0.22l0.266,-0.221l0.265,-0.222l0.266,-0.223l0.266,-0.225l0.266,-0.226l0.266,-0.227l0.266,-0.228l0.266,-0.229l0.266,-0.231l0.266,-0.232l0.266,-0.233l0.267,-0.234l0.266,-0.236l0.266,-0.237l0.267,-0.238l0.267,-0.239l0.097,-0.088l0.172,-0.15l0.271,-0.237l0.272,-0.239l0.271,-0.24l0.271,-0.241l0.272,-0.242l0.272,-0.244l0.271,-0.245l0.272,-0.246l0.272,-0.247l0.272,-0.249l0.272,-0.25l0.273,-0.251l0.272,-0.253l0.272,-0.253l0.273,-0.255l0.273,-0.257l0.272,-0.257l0.273,-0.259l0.273,-0.26l0.273,-0.262l0.273,-0.263l0.273,-0.264l0.273,-0.265l0.273,-0.267l0.274,-0.268l0.275,-0.271l0.007,-0.007l1.506,-0.674l1.484,0.47Z"/><path d="M398.57,187.607c121.106,10.157 222.457,41.15 229.736,202.21c5.518,122.121 -6.053,227.16 -18.465,325.235c13.308,-34.341 25.555,-96.204 34.675,-156.066c6.956,73.564 1.875,121.542 -3.187,150.261c28.365,-63.351 40.746,-219.269 28.551,-489.558c-90.437,-67.297 -178.959,-68.702 -271.31,-32.082Z" style="stroke:#000;stroke-width:3px;"/><path d="M517.67,211.553c79.544,62.79 102.591,155.309 75.628,319.918c24.775,-79.431 25.222,-155.374 23.594,-203.75c-1.979,-58.788 -59.806,-106.514 -99.222,-116.168Z" style="stroke:#000;stroke-width:3px;"/><path d="M518.053,446.594l0.067,0.009l0.087,0.011l0.094,0.013l0.134,0.02l0.156,0.023l0.178,0.028l0.2,0.033l0.223,0.039l0.242,0.044l0.263,0.051l0.282,0.057l0.298,0.062l0.159,0.036l0.161,0.036l0.166,0.038l0.169,0.039l0.174,0.042l0.177,0.044l0.181,0.046l0.185,0.047l0.188,0.05l0.193,0.052l0.195,0.054l0.199,0.057l0.202,0.058l0.205,0.061l0.208,0.063l0.211,0.066l0.214,0.068l0.217,0.071l0.219,0.073l0.222,0.075l0.04,0.014l0.184,0.065l0.227,0.082l0.228,0.085l0.231,0.087l0.233,0.09l0.235,0.094l0.236,0.096l0.239,0.099l0.24,0.102l0.241,0.105l0.243,0.108l0.245,0.111l0.246,0.115l0.247,0.118l0.248,0.121l0.249,0.125l0.25,0.128l0.25,0.132l0.252,0.135l0.252,0.139l0.252,0.142l0.253,0.147l0.253,0.15l0.253,0.154l0.25,0.155l0.13,0.083l0.126,0.082l0.127,0.082l0.126,0.084l0.127,0.084l0.085,0.058l0.041,0.028l0.125,0.088l0.125,0.088l0.125,0.09l0.125,0.091l0.125,0.092l0.125,0.093l0.124,0.094l0.124,0.096l0.124,0.096l0.124,0.097l0.123,0.099l0.124,0.1l0.123,0.1l0.122,0.102l0.122,0.103l0.122,0.105l0.122,0.105l0.121,0.107l0.121,0.107l0.12,0.109l0.121,0.111l0.119,0.111l0.119,0.113l0.119,0.113l0.118,0.115l0.118,0.117l0.117,0.117l0.117,0.119l0.116,0.12l0.115,0.121l0.115,0.122l0.115,0.124l0.113,0.125l0.114,0.127l0.112,0.127l0.112,0.129l0.111,0.13l0.11,0.132l0.11,0.133l0.109,0.134l0.108,0.135l0.107,0.137l0.107,0.138l0.105,0.14l0.105,0.141l0.104,0.142l0.019,0.026l0.083,0.118l0.1,0.147l0.099,0.147l0.098,0.149l0.098,0.15l0.096,0.151l0.095,0.153l0.094,0.154l0.094,0.156l0.092,0.157l0.09,0.158l0.09,0.159l0.089,0.161l0.087,0.162l0.087,0.164l0.085,0.165l0.084,0.166l0.082,0.168l0.032,0.064l0.048,0.105l0.077,0.172l0.075,0.173l0.075,0.174l0.073,0.175l0.071,0.177l0.07,0.178l0.069,0.179l0.067,0.181l0.066,0.181l0.064,0.183l0.063,0.185l0.061,0.185l0.06,0.187l0.004,0.015l0.04,0.177l0.043,0.193l0.04,0.194l0.038,0.196l0.037,0.196l0.001,0.001l0.017,0.2l0.016,0.202l0.014,0.202l0.012,0.203l0.01,0.204l0.001,0.034l-0.007,0.173l-0.011,0.207l-0.012,0.208l-0.015,0.209l-0.017,0.208l-0.019,0.209l-0.022,0.209l-0.023,0.209l-0.026,0.21l-0.026,0.197l-0.002,0.013l-0.047,0.211l-0.049,0.212l-0.051,0.211l-0.054,0.211l-0.056,0.212l-0.058,0.211l-0.061,0.211l-0.062,0.21l-0.065,0.211l-0.068,0.201l-0.003,0.01l-0.913,1.548l-1.156,0.66l-0.01,0l-2.149,-2.154l-0.073,-0.179l-0.075,-0.168l-0.075,-0.165l-0.076,-0.162l-0.077,-0.16l-0.078,-0.158l-0.079,-0.155l-0.08,-0.153l-0.081,-0.15l-0.081,-0.148l-0.005,-0.009l-0.062,-0.138l-0.067,-0.145l-0.067,-0.143l-0.069,-0.141l-0.069,-0.14l-0.07,-0.137l-0.071,-0.135l-0.072,-0.133l-0.072,-0.131l-0.061,-0.107l-0.009,-0.022l-0.058,-0.131l-0.059,-0.129l-0.059,-0.127l-0.06,-0.126l-0.06,-0.123l-0.001,-0.001l-0.044,-0.127l-0.046,-0.126l-0.046,-0.124l-0.047,-0.124l-0.045,-0.113l-0.002,-0.009l-0.035,-0.126l-0.036,-0.124l-0.037,-0.124l-0.037,-0.122l-0.039,-0.122l-0.04,-0.121l-0.041,-0.12l-0.041,-0.119l-0.043,-0.118l-0.043,-0.118l-0.045,-0.116l-0.045,-0.116l-0.047,-0.115l-0.029,-0.071l-0.017,-0.044l-0.045,-0.115l-0.046,-0.114l-0.047,-0.113l-0.048,-0.113l-0.048,-0.112l-0.05,-0.111l-0.051,-0.111l-0.051,-0.11l-0.053,-0.109l-0.053,-0.108l-0.054,-0.108l-0.055,-0.107l-0.056,-0.107l-0.056,-0.106l-0.058,-0.105l-0.058,-0.105l-0.06,-0.104l-0.048,-0.084l-0.011,-0.019l-0.059,-0.104l-0.06,-0.104l-0.06,-0.102l-0.062,-0.103l-0.062,-0.101l-0.063,-0.101l-0.064,-0.101l-0.064,-0.099l-0.066,-0.1l-0.066,-0.098l-0.067,-0.098l-0.068,-0.098l-0.068,-0.097l-0.069,-0.096l-0.07,-0.096l-0.071,-0.095l-0.071,-0.095l-0.072,-0.094l-0.073,-0.093l-0.073,-0.093l-0.075,-0.093l-0.074,-0.091l-0.076,-0.091l-0.076,-0.091l-0.077,-0.09l-0.077,-0.09l-0.078,-0.088l-0.079,-0.089l-0.079,-0.087l-0.08,-0.088l-0.081,-0.086l-0.081,-0.086l-0.081,-0.085l-0.083,-0.085l-0.082,-0.084l-0.084,-0.084l-0.083,-0.083l-0.085,-0.083l-0.084,-0.081l-0.086,-0.082l-0.085,-0.081l-0.086,-0.08l-0.087,-0.079l-0.087,-0.079l-0.088,-0.078l-0.088,-0.078l-0.028,-0.025l-0.059,-0.053l-0.088,-0.078l-0.088,-0.077l-0.089,-0.077l-0.089,-0.075l-0.086,-0.073l-0.183,-0.152l-0.181,-0.146l-0.182,-0.144l-0.184,-0.142l-0.184,-0.14l-0.185,-0.137l-0.185,-0.134l-0.187,-0.133l-0.186,-0.13l-0.188,-0.127l-0.187,-0.125l-0.188,-0.123l-0.187,-0.12l-0.188,-0.118l-0.187,-0.116l-0.188,-0.113l-0.186,-0.111l-0.187,-0.108l-0.185,-0.106l-0.185,-0.104l-0.184,-0.101l-0.183,-0.099l-0.182,-0.096l-0.181,-0.094l-0.148,-0.076l-0.032,-0.017l-0.177,-0.09l-0.176,-0.088l-0.175,-0.086l-0.173,-0.084l-0.171,-0.081l-0.169,-0.079l-0.166,-0.077l-0.165,-0.074l-0.162,-0.072l-0.16,-0.07l-0.158,-0.068l-0.154,-0.065l-0.152,-0.064l-0.149,-0.061l-0.146,-0.059l-0.143,-0.057l-0.139,-0.054l-0.136,-0.053l-0.133,-0.05l-0.127,-0.048l-0.25,-0.091l-0.231,-0.082l-0.215,-0.074l-0.197,-0.066l-0.179,-0.059l-0.159,-0.05l-0.14,-0.043l-0.118,-0.036l-0.093,-0.028l-0.067,-0.019l-0.062,-0.018l-0.04,-0.011l-0.009,-0.003l-1.333,-0.961l-0.357,-1.49l0.003,-0.02l0.871,-1.297l1.582,-0.392l0.01,0.001Z"/><path d="M406.821,170.919c-51.475,110.005 -137.094,173.43 -229.652,228.477c65.33,-45.883 132.397,-117.919 162.503,-198.286c-78.783,62.052 -114.136,117.337 -160.062,171.023c13.512,-60.875 28.974,-122.014 75.461,-187.35l151.75,-13.864Z" style="stroke:#000;stroke-width:3px;"/><path d="M417.926,648.006l5.771,-31.204c-17.14,5.954 -35.233,-6.037 -47.914,-12.958l-14.58,52.856c-33.166,-7.794 -68.353,-0.803 -104.202,9.9c-33.584,29.101 -36.693,56.018 -31.125,79.967c135.716,176.232 300.293,282.658 390.74,182.051c32.133,-35.743 55.402,-116.42 86.708,-182.051c1.776,-19.769 -0.77,-40.205 -19.021,-76.967c-26.906,-5.877 -56.579,-8.638 -88.693,-3l-20.827,-11.9l-7.038,-60.1c-18.261,7.768 -34.337,18.316 -65.27,21.236l3.495,38.864c-37.816,13.845 -55.307,7.641 -88.044,-6.694Z" style="fill:#c80000;stroke:#000;stroke-width:8px;"/><path d="M378.661,609.909c11.382,6.939 22.209,10.799 30.437,12.376c-10.285,14.39 -19.823,30.953 -16.629,47.82l-18.166,24.921l-9.663,-37.445l14.021,-47.672Z" style="fill:#830000;"/><path d="M454.832,792.488c-48.863,8.246 -85.903,0.419 -115.794,-5.593c-3.037,20.038 79.362,88 96.355,87.974l-15.963,13.547l33.649,0l1.753,-95.928Z" style="fill:#830000;"/><g><g><path d="M95.889,760.191c-5.29,-9.927 12.881,-74.922 14.242,-80.1c5.865,-22.324 36.224,-15.756 27.062,0.268c-13.82,24.175 4.413,63.704 15.62,60.267l-56.924,19.565Z" style="fill:#027818;stroke:#000;stroke-width:8px;"/><path d="M119.447,750.297c-6.453,-19.899 -12.804,-41.468 -2.557,-74.234c6.366,2.646 9.52,3.325 18.582,-1.828c1.028,3.318 -2.315,6.461 -3.195,9.94c-4.753,18.789 1.857,39.87 9.179,60.354l-22.009,5.768Z" style="fill:#002f09;"/></g><path d="M75.67,735.665c-10.023,-7.044 -34.315,0.211 -39.817,14.248c12.472,10.712 35.901,0.341 39.817,-14.248Z" style="fill:#9c6702;stroke:#000;stroke-width:8px;"/><path d="M155.999,705.854c3.279,-11.804 26.658,-21.608 39.818,-14.249c-2.845,16.193 -27.534,23.042 -39.818,14.249Z" style="fill:#9c6702;stroke:#000;stroke-width:8px;"/><path d="M53.285,754.739c-26.6,-8.422 -35.678,6.466 -41.641,14.487c-23.869,32.108 54.824,175.405 79.893,211.69c19.626,28.406 55.699,5.774 49.464,-19.725c-19.371,-39.581 -97.325,-165.247 -87.716,-206.452Z" style="fill:#9c6702;stroke:#000;stroke-width:8px;"/><path d="M35.576,848.034l1.219,1.373l0.051,0.131l0.152,0.397l0.199,0.509l0.2,0.506l0.2,0.502l0.197,0.487l0.004,0.011l0.197,0.495l0.197,0.492l0.199,0.488l0.199,0.483l0.2,0.48l0.2,0.477l0.156,0.364l0.044,0.109l0.194,0.471l0.194,0.468l0.196,0.464l0.196,0.461l0.197,0.457l0.198,0.453l0.198,0.45l0.129,0.288l0.068,0.159l0.191,0.446l0.192,0.443l0.193,0.439l0.141,0.318l0.05,0.119l0.186,0.435l0.188,0.433l0.188,0.429l0.142,0.321l0.044,0.106l0.178,0.428l0.18,0.424l0.18,0.422l0.182,0.418l0.046,0.106l0.13,0.312l0.176,0.415l0.176,0.413l0.178,0.41l0.178,0.407l0.114,0.255l0.064,0.15l0.174,0.404l0.176,0.401l0.176,0.398l0.178,0.396l0.178,0.392l0.18,0.39l0.18,0.388l0.182,0.384l0.182,0.382l0.184,0.379l0.184,0.377l0.084,0.17l0.099,0.205l0.182,0.375l0.182,0.371l0.184,0.369l0.185,0.366l0.185,0.364l0.187,0.362l0.188,0.359l0.188,0.357l0.19,0.354l0.19,0.352l0.191,0.35l0.192,0.348l0.194,0.345l0.202,0.356l0.282,1.824l-0.965,1.466l-0.016,0.01l-1.733,0.286l-1.55,-1.002l-0.006,-0.008l-0.243,-0.331l-0.246,-0.339l-0.246,-0.341l-0.245,-0.344l-0.244,-0.347l-0.244,-0.349l-0.243,-0.352l-0.242,-0.355l-0.242,-0.358l-0.241,-0.36l-0.241,-0.363l-0.239,-0.366l-0.24,-0.369l-0.238,-0.372l-0.13,-0.204l-0.106,-0.172l-0.233,-0.38l-0.232,-0.383l-0.231,-0.385l-0.23,-0.389l-0.23,-0.392l-0.229,-0.395l-0.228,-0.397l-0.227,-0.401l-0.227,-0.404l-0.226,-0.407l-0.225,-0.41l-0.082,-0.151l-0.138,-0.264l-0.218,-0.419l-0.216,-0.422l-0.216,-0.425l-0.215,-0.428l-0.159,-0.321l-0.053,-0.111l-0.205,-0.439l-0.204,-0.441l-0.204,-0.444l-0.202,-0.448l-0.05,-0.111l-0.143,-0.343l-0.189,-0.459l-0.188,-0.462l-0.186,-0.465l-0.05,-0.127l-0.13,-0.344l-0.176,-0.475l-0.175,-0.478l-0.174,-0.481l-0.061,-0.172l-0.106,-0.315l-0.162,-0.491l-0.161,-0.495l-0.16,-0.497l-0.158,-0.501l-0.157,-0.504l-0.156,-0.508l-0.154,-0.51l-0.036,-0.118l-0.111,-0.399l-0.143,-0.52l-0.142,-0.524l-0.141,-0.526l-0.139,-0.531l-0.137,-0.533l-0.137,-0.537l-0.002,-0.012l-0.127,-0.53l-0.129,-0.546l-0.126,-0.549l-0.126,-0.552l-0.093,-0.422l-0.029,-0.129l-0.002,-0.01l0.259,-1.818l1.323,-1.126l0.019,-0.006l1.725,0.21Z" style="fill:#fff;"/><path d="M180,705.659c7.597,-21.976 30.852,-18 39.882,-17.27c36.523,2.951 78.234,184.589 69.536,226.211c-5.858,28.032 -24.145,41.43 -54.387,20.057c-10.14,-42.885 -20.471,-203.987 -55.031,-228.998Z" style="fill:#9c6702;stroke:#000;stroke-width:8px;"/><path d="M218.564,777.919c3.3,-11.575 26.154,-24.38 39.947,-23.506c-7.461,-23.639 -14.685,-47.611 -31.825,-59.914c-3.693,-2.651 -11.976,-5.387 -19.495,-4.836c-12.423,0.911 -24.681,7.662 -24.025,14.221c20.11,17.991 23.977,46.929 35.398,74.035Z" style="fill:#9c6702;"/><path d="M253.481,900.488c11.528,60.982 -99.712,109.893 -136.388,46.24c-22.099,-38.352 -102.817,-166.582 -48.522,-210.059c17.83,-14.277 35.488,-0.259 50.065,-5.742c21.354,-8.032 33.736,-37.041 49.646,-29.095c76.465,38.188 77.646,158.705 85.199,198.656Z" style="fill:#9c6702;stroke:#000;stroke-width:8px;"/><g><path d="M147.906,777.447c6.362,-19.293 18.241,-25.207 37.267,-13.336c-13.099,-22.542 -41.117,-11.487 -37.267,13.336Z"/></g><g><path d="M118.219,857.262c-6.332,-16.067 -18.128,-38.625 -5.547,-50.174c6.88,-6.316 19.831,-1.28 29.71,-2.633c8.249,-1.129 19.823,-16.643 27.12,-17.193c17.558,-1.323 21.482,26.366 26.166,42.456c19.184,65.898 -52.336,91.273 -77.449,27.544Z" style="fill:#921c00;stroke:#000;stroke-width:5px;"/><path d="M125.164,867.949c44.21,58.591 78.808,0.241 71.214,-24.78c-29.077,-4.833 -51.039,4.007 -71.214,24.78Z" style="fill:#ff3600;"/></g><path d="M189.932,762.408c6.936,-2.482 13.314,-2.409 14.234,0.162c0.921,2.572 -3.963,6.674 -10.899,9.156c-6.936,2.483 -13.315,2.41 -14.235,-0.161c-0.92,-2.572 3.964,-6.675 10.9,-9.157Z" style="fill:#ff3600;"/><path d="M83.031,800.663c6.936,-2.482 13.315,-2.409 14.235,0.162c0.92,2.571 -3.964,6.674 -10.9,9.156c-6.936,2.482 -13.314,2.41 -14.234,-0.162c-0.921,-2.571 3.963,-6.674 10.899,-9.156Z" style="fill:#ff3600;"/><path d="M216.957,773.979c0,0 10.158,25.415 9.278,30.787" style="fill:none;stroke:#fff;stroke-width:8.5px;"/><g><circle cx="100.757" cy="774.112" r="14.391" style="stroke:#000;stroke-width:1px;"/><circle cx="105.698" cy="769.171" r="4.941" style="fill:#fff;"/></g></g><g><g><path d="M221.714,675.619c-1.636,-11.129 37.371,-66.201 40.396,-70.618c13.045,-19.043 39.415,-2.63 25.39,9.371c-21.158,18.104 -17.309,61.465 -5.599,62.005l-60.187,-0.758Z" style="fill:#027818;stroke:#000;stroke-width:8px;"/><path d="M247.228,674.241c0.628,-20.91 1.916,-43.357 22.604,-70.755c5.102,4.636 7.842,6.338 18.111,4.539c-0.15,3.471 -4.357,5.303 -6.358,8.283c-10.805,16.089 -11.685,38.164 -11.692,59.918l-22.665,-1.985Z" style="fill:#002f09;"/></g><path d="M210.94,645.714c-7.063,-10.009 -32.379,-11.363 -42.29,0c8.135,14.288 33.687,12.417 42.29,0Z" style="fill:#9c6702;stroke:#000;stroke-width:8px;"/><path d="M296.617,644.712c7.063,-10.009 32.379,-11.363 42.29,0c-8.135,14.287 -33.687,12.417 -42.29,0Z" style="fill:#9c6702;stroke:#000;stroke-width:8px;"/><path d="M183.438,656.131c-22.208,-16.891 -35.771,-5.933 -44.088,-0.39c-33.292,22.189 -7.481,183.621 3.897,226.23c8.907,33.359 50.497,24.203 53.218,-1.905c-4.903,-43.794 -35.958,-188.377 -13.027,-223.935Z" style="fill:#ffb831;stroke:#000;stroke-width:8px;"/><path d="M133.777,737.225l1.553,0.779l0.685,1.704l0.004,0.14l0.01,0.425l0.015,0.547l0.017,0.543l0.02,0.54l0.021,0.526l0,0.011l0.019,0.533l0.02,0.529l0.023,0.526l0.024,0.523l0.027,0.519l0.028,0.516l0.024,0.395l0.005,0.117l0.023,0.51l0.026,0.506l0.027,0.503l0.03,0.499l0.032,0.497l0.033,0.493l0.035,0.491l0.025,0.315l0.009,0.172l0.03,0.484l0.032,0.482l0.033,0.478l0.026,0.348l0.008,0.128l0.028,0.473l0.031,0.471l0.032,0.467l0.026,0.35l0.005,0.115l0.025,0.463l0.026,0.46l0.028,0.457l0.029,0.455l0.009,0.116l0.017,0.337l0.025,0.451l0.027,0.448l0.029,0.445l0.031,0.443l0.021,0.279l0.01,0.162l0.028,0.44l0.03,0.436l0.032,0.435l0.034,0.432l0.036,0.43l0.037,0.428l0.04,0.425l0.041,0.423l0.043,0.422l0.045,0.418l0.047,0.417l0.022,0.189l0.023,0.226l0.046,0.414l0.046,0.411l0.049,0.409l0.05,0.408l0.053,0.405l0.053,0.403l0.056,0.402l0.057,0.399l0.059,0.397l0.061,0.396l0.062,0.394l0.064,0.392l0.066,0.39l0.07,0.403l-0.349,1.812l-1.402,1.056l-0.01,0.002l-0.009,0.002l-1.728,-0.315l-1.121,-1.465l-0.003,-0.01l-0.118,-0.394l-0.118,-0.401l-0.116,-0.404l-0.114,-0.407l-0.114,-0.408l-0.111,-0.412l-0.11,-0.413l-0.109,-0.416l-0.107,-0.418l-0.106,-0.42l-0.104,-0.423l-0.103,-0.426l-0.1,-0.428l-0.1,-0.43l-0.053,-0.236l-0.042,-0.197l-0.091,-0.437l-0.09,-0.438l-0.087,-0.442l-0.086,-0.443l-0.084,-0.446l-0.083,-0.449l-0.081,-0.452l-0.079,-0.454l-0.077,-0.456l-0.076,-0.459l-0.073,-0.462l-0.027,-0.171l-0.041,-0.294l-0.064,-0.468l-0.062,-0.47l-0.059,-0.473l-0.058,-0.476l-0.042,-0.355l-0.012,-0.123l-0.046,-0.482l-0.044,-0.484l-0.041,-0.487l-0.04,-0.49l-0.009,-0.121l-0.019,-0.372l-0.024,-0.495l-0.021,-0.498l-0.019,-0.501l-0.004,-0.136l-0.006,-0.368l-0.006,-0.507l-0.004,-0.509l-0.001,-0.511l0,-0.182l0.007,-0.333l0.012,-0.517l0.015,-0.52l0.017,-0.522l0.02,-0.525l0.022,-0.528l0.024,-0.53l0.027,-0.533l0.007,-0.122l0.029,-0.413l0.04,-0.538l0.043,-0.541l0.045,-0.544l0.048,-0.546l0.05,-0.548l0.053,-0.552l0.001,-0.011l0.059,-0.543l0.063,-0.557l0.066,-0.559l0.068,-0.562l0.054,-0.429l0.017,-0.132l0.001,-0.01l0.856,-1.624l1.626,-0.615l0.02,0.001Z" style="fill:#fff;"/><path d="M180.388,656.01c-4.573,-4.177 -11.997,-7.186 -22.852,-7.592c-4.998,-0.187 -13.242,4.701 -15.405,7.317c-17.9,21.645 -16.424,43.657 -15.426,66.315c16.175,-5.785 29.843,-6.735 33.572,2.103c1.752,-27.973 9.723,-49.455 20.111,-68.143Z" style="fill:#9c6702;"/><path d="M319.279,652.615c14.558,-18.132 35.113,-6.553 43.37,-2.823c33.393,15.084 11.465,200.155 -10.748,236.414c-14.96,24.419 -36.692,30.872 -57.965,0.559c4.903,-43.794 49.456,-198.957 25.343,-234.15Z" style="fill:#ffb831;stroke:#000;stroke-width:8px;"/><path d="M331.243,733.643c7.006,-9.786 32.838,-14.142 45.531,-8.672c0.939,-24.771 2.214,-49.775 -9.778,-67.134c-2.583,-3.74 -9.461,-9.107 -16.726,-11.121c-12.004,-3.328 -25.819,-1.102 -27.412,5.295c12.873,23.714 6.764,52.262 8.385,81.632Z" style="fill:#9c6702;"/><path d="M322.82,860.81c-9.692,61.301 -130.908,69.872 -143.993,-2.416c-7.884,-43.556 -40.678,-191.485 25.091,-214.126c21.597,-7.435 33.5,11.713 49.072,11.462c22.812,-0.368 44.244,-23.509 56.546,-10.667c59.128,61.719 19.634,175.588 13.284,215.747Z" style="fill:#ffb831;stroke:#000;stroke-width:8px;"/><path d="M167.461,723.306c40.03,-19.441 76.057,-2.854 85.473,-5.563c15.568,-4.478 73.122,-7.735 85.143,6.41c-2.363,-34.222 -14.39,-69.765 -34.362,-78.926c-8.357,-3.833 -16.971,4.283 -33.261,10.376c-5.589,2.09 -13.927,1.97 -18.338,3.522c-5.503,-2.026 -7.733,-1.36 -11.571,-3.12c-13.66,-6.267 -17.035,-10.722 -30.596,-10.059c-26.783,1.311 -42.272,41.246 -42.488,77.36Z" style="fill:#9c6702;"/><g><path d="M198.466,709.392c14.528,-18.525 27.785,-18.67 39.582,0c-4.738,-25.637 -34.843,-24.669 -39.582,0Z"/></g><g><path d="M264.874,709.392c12.491,-16.022 25.668,-17.587 39.582,0c-4.738,-25.637 -34.842,-24.669 -39.582,0Z"/></g><g><path d="M210.031,774.538c-0.548,-17.262 -4.054,-42.474 11.683,-49.11c8.606,-3.629 19.103,5.477 28.86,7.532c8.147,1.716 24.272,-8.992 31.327,-7.051c16.977,4.671 11.342,32.062 10.331,48.79c-4.14,68.509 -80.028,68.303 -82.201,-0.161Z" style="fill:#921c00;stroke:#000;stroke-width:5px;"/><path d="M212.97,786.94c21.884,70.061 74.118,26.78 75.399,0.663c-25.749,-14.348 -49.405,-13.424 -75.399,-0.663Z" style="fill:#ff3600;"/></g><ellipse cx="309.511" cy="714.341" rx="13.348" ry="4.948" style="fill:#ff3600;"/><ellipse cx="195.971" cy="714.341" rx="13.348" ry="4.948" style="fill:#ff3600;"/><path d="M331.056,729.392c0,0 1.001,27.351 -1.636,32.113" style="fill:none;stroke:#fff;stroke-width:8.5px;"/></g><path d="M455.564,885.39l11.234,0.594l4,-220.495l-10.798,-0.889l-4.436,220.79Z" style="fill:#820202;stroke:#000;stroke-width:5px;"/><path d="M463.999,508.96l-0.048,0.035l-0.144,0.102l-0.144,0.102l-0.146,0.101l-0.146,0.1l-0.146,0.099l-0.148,0.099l-0.148,0.097l-0.149,0.098l-0.15,0.096l-0.15,0.096l-0.151,0.095l-0.152,0.094l-0.153,0.094l-0.153,0.093l-0.05,0.029l-0.105,0.062l-0.155,0.089l-0.156,0.089l-0.157,0.089l-0.158,0.087l-0.158,0.087l-0.159,0.086l-0.159,0.086l-0.161,0.084l-0.16,0.084l-0.162,0.084l-0.162,0.082l-0.163,0.082l-0.163,0.081l-0.164,0.081l-0.165,0.079l-0.165,0.079l-0.166,0.078l-0.167,0.078l-0.167,0.077l-0.167,0.076l-0.169,0.075l-0.169,0.075l-0.169,0.074l-0.17,0.073l-0.171,0.072l-0.171,0.072l-0.172,0.071l-0.172,0.071l-0.173,0.069l-0.174,0.069l-0.174,0.068l-0.174,0.068l-0.175,0.067l-0.176,0.066l-0.176,0.065l-0.105,0.039l-0.072,0.025l-0.178,0.062l-0.178,0.061l-0.179,0.06l-0.179,0.06l-0.18,0.059l-0.18,0.058l-0.181,0.058l-0.181,0.057l-0.182,0.056l-0.182,0.055l-0.182,0.055l-0.183,0.054l-0.184,0.053l-0.186,0.053l-0.367,0.103l-0.371,0.101l-0.372,0.097l-0.193,0.049l-0.182,0.044l-0.376,0.088l-0.379,0.084l-0.379,0.082l-0.381,0.079l-0.382,0.077l-0.384,0.074l-0.385,0.071l-0.387,0.068l-0.388,0.066l-0.389,0.063l-0.092,0.014l-0.298,0.041l-0.392,0.05l-0.393,0.048l-0.394,0.045l-0.395,0.043l-0.396,0.04l-0.396,0.037l-0.398,0.035l-0.399,0.032l-0.399,0.03l-0.104,0.007l-0.296,0.014l-0.401,0.016l-0.402,0.014l-0.402,0.011l-0.323,0.007l-0.079,0l-0.403,-0.002l-0.404,-0.004l-0.404,-0.007l-0.374,-0.009l-0.03,-0.001l-0.404,-0.021l-0.404,-0.023l-0.405,-0.025l-0.357,-0.025l-0.048,-0.004l-0.404,-0.037l-0.404,-0.039l-0.404,-0.041l-0.386,-0.042l-0.019,-0.002l-0.403,-0.054l-0.403,-0.056l-0.403,-0.059l-0.403,-0.061l-0.403,-0.063l-0.402,-0.065l-0.402,-0.067l-0.402,-0.07l-0.135,-0.024l-0.265,-0.053l-0.4,-0.082l-0.399,-0.084l-0.398,-0.087l-0.398,-0.088l-0.398,-0.091l-0.397,-0.093l-0.396,-0.094l-0.339,-0.083l-0.056,-0.015l-0.394,-0.105l-0.392,-0.107l-0.393,-0.109l-0.391,-0.111l-0.39,-0.112l-0.39,-0.115l-0.388,-0.117l-0.388,-0.118l-0.118,-0.037l-0.267,-0.088l-0.384,-0.129l-0.383,-0.13l-0.382,-0.132l-0.381,-0.134l-0.38,-0.136l-0.378,-0.138l-0.377,-0.139l-0.376,-0.141l-0.375,-0.142l-0.373,-0.145l-0.372,-0.145l-0.371,-0.148l-0.369,-0.149l-0.368,-0.151l-0.367,-0.152l-0.05,-0.021l-0.314,-0.137l-0.361,-0.16l-0.361,-0.162l-0.359,-0.163l-0.357,-0.165l-0.355,-0.166l-0.354,-0.168l-0.352,-0.168l-0.351,-0.171l-0.348,-0.171l-0.347,-0.173l-0.345,-0.175l-0.24,-0.123l-0.102,-0.052l-0.425,-0.938l0.938,-0.425l0.11,0.027l0.258,0.065l0.368,0.09l0.369,0.088l0.37,0.086l0.371,0.085l0.372,0.083l0.372,0.081l0.374,0.079l0.374,0.077l0.376,0.076l0.376,0.074l0.377,0.072l0.325,0.06l0.052,0.011l0.377,0.073l0.377,0.072l0.378,0.069l0.379,0.068l0.379,0.066l0.38,0.064l0.381,0.063l0.381,0.06l0.381,0.059l0.382,0.056l0.382,0.055l0.383,0.053l0.383,0.051l0.383,0.049l0.384,0.047l0.266,0.031l0.117,0.016l0.383,0.05l0.382,0.048l0.383,0.046l0.384,0.043l0.383,0.042l0.383,0.04l0.383,0.038l0.384,0.036l0.054,0.005l0.328,0.034l0.382,0.039l0.383,0.036l0.382,0.034l0.382,0.032l0.382,0.03l0.382,0.028l0.381,0.026l0.253,0.016l0.128,0.011l0.38,0.03l0.38,0.028l0.38,0.026l0.379,0.023l0.379,0.022l0.379,0.02l0.378,0.017l0.378,0.015l0.018,0.001l0.359,0.02l0.376,0.019l0.376,0.016l0.376,0.015l0.044,0.001l0.33,0.017l0.375,0.016l0.373,0.014l0.373,0.012l0.028,0.001l0.345,0.017l0.371,0.017l0.372,0.014l0.37,0.012l0.073,0.001l0.298,0.015l0.369,0.015l0.369,0.013l0.369,0.011l0.272,0.006l0.095,0.004l0.368,0.014l0.367,0.012l0.366,0.01l0.366,0.007l0.365,0.004l0.364,0.003l0.363,-0.001l0.363,-0.003l0.362,-0.005l0.276,-0.006l0.086,0l0.361,-0.003l0.361,-0.005l0.359,-0.009l0.359,-0.01l0.358,-0.014l0.357,-0.016l0.357,-0.018l0.355,-0.022l0.354,-0.024l0.354,-0.026l0.171,-0.015l0.182,-0.012l0.352,-0.028l0.351,-0.03l0.353,-0.033l0.173,-0.017l0.174,-0.018l0.174,-0.019l0.174,-0.02l0.174,-0.02l0.174,-0.021l0.173,-0.022l0.173,-0.022l0.172,-0.024l0.173,-0.023l0.172,-0.025l0.172,-0.025l0.171,-0.027l0.171,-0.026l0.07,-0.011l0.102,-0.016l0.171,-0.026l0.171,-0.026l0.17,-0.028l0.171,-0.028l0.17,-0.029l0.169,-0.03l0.17,-0.03l0.169,-0.032l0.169,-0.032l0.168,-0.033l0.168,-0.033l0.168,-0.035l0.168,-0.035l0.167,-0.036l0.167,-0.036l0.167,-0.038l0.166,-0.038l0.166,-0.039l0.165,-0.04l0.166,-0.041l0.165,-0.041l0.164,-0.042l0.164,-0.043l0.164,-0.044l0.164,-0.045l0.163,-0.045l0.163,-0.046l0.162,-0.047l0.162,-0.048l0.162,-0.049l0.161,-0.049l0.161,-0.051l0.161,-0.051l0.16,-0.052l0.16,-0.052l0.108,-0.037l0.052,-0.017l0.16,-0.052l0.159,-0.054l0.159,-0.055l0.159,-0.055l0.158,-0.056l0.158,-0.058l0.158,-0.058l0.157,-0.058l0.156,-0.06l0.157,-0.061l0.156,-0.061l0.155,-0.063l0.156,-0.063l0.154,-0.064l0.054,-0.023l0.103,-0.043l1.003,0.269l-0.287,0.999l-0.092,0.067Z"/><g><path d="M406.659,855.267c-0.286,-22.545 -26.309,-45.959 -31.289,-60.92c-0.998,-3 -5.788,31.328 -5.788,31.328c0,0 0.133,5.219 4.472,13.789l-43.309,-37.299c-6.703,-5.815 -15.608,-11.809 -31.654,-18.385c-3.389,-2.458 -8.76,-5.053 -18.493,-7.944c-15.459,-4.592 -11.209,8.788 -5.708,16.858c6.06,8.891 13.838,9.673 22.471,13.645l19.959,16.157l14.115,23.514l-33.815,-19.132c-4.191,-2.43 -9.039,-9.012 -19.982,-17.268c-4.36,-8.177 -11.166,-11.283 -14.997,-14.026c-12.326,-8.825 -19.093,-1.504 -14.418,6.834c4.93,8.793 12.477,16.682 17.939,23.585c10.244,14.73 16.979,19.337 21.799,21.69l33.249,24.228l-35.198,-13.217l-18.084,-18.743c-2.792,-6.485 -10.249,-13.848 -18.92,-22.492c-8.77,-8.743 -23.221,-2.275 -13.929,9.306c7.874,9.814 13.879,18.981 17.507,26.882l16.047,15.762l36.248,23.983l-32.473,-12.373l-15.587,-11.059c-4.244,-6.884 -7.392,-19.879 -19.004,-29.847c-10.493,-9.008 -19.14,-2.326 -10.82,12.901c5.588,10.227 6.797,21.528 15.267,29.504l26.454,18.782l29.438,17.234c16.637,15.888 34.437,22.855 52.736,25.992l84.857,15.649l24.251,-62.671c-12.686,-13.408 -27.022,-28.625 -53.341,-42.247Z" style="fill:#ffd9bc;stroke:#000;stroke-width:5.5px;"/><path d="M372.741,824.546l3.505,-23.401c13.432,18.027 29.44,42.478 28.413,56.122c16.799,7.455 31.803,18.547 46.602,35.155l-10.91,17.921c0.832,-19.139 -12.139,-31.995 -36.105,-42.801c-5.091,-16.921 -16.8,-33.514 -31.505,-42.996Z" style="fill:#c0997b;"/><path d="M272.444,781.069c5.691,13.031 16.422,18.863 27.79,18.969c6.81,8.871 14.288,14.266 22.743,17.041l11.215,28.367l-14.37,-24.177l-20.658,-17.05c-15.647,-4.638 -26.865,-11.531 -26.72,-23.15Z" style="fill:#c0997b;"/><path d="M252.862,793.703c4.226,1.411 7.571,3.157 9.914,5.284c5.861,3.172 10.158,7.275 13.014,12.234c5.772,5.114 10.565,9.321 16.508,15.213l38.412,22.339c-10.71,-3.842 -24.022,-11.237 -34.726,-16.185c0.02,3.629 -2.668,7.042 -8.777,9.525c3.685,-2.232 5.991,-6.321 5.777,-10.53c-2.94,-5.97 -13.359,-13.658 -20.541,-18.325c-3.186,-7.537 -10.889,-13.697 -19.581,-19.555Z" style="fill:#c0997b;"/><path d="M258.07,830.813l5.816,14.633l21.34,19.956l27.459,7.72l8.078,1.443l-35.894,-14.163l-18.663,-19.068c-0.519,-1.612 -4.341,-6.122 -8.136,-10.521Z" style="fill:#c0997b;"/><path d="M289.407,845.446l34.521,26.145l-0.71,-4.049l-33.811,-22.096Z" style="fill:#c0997b;"/><path d="M236.632,842.726c6.426,11.618 14.415,22.951 16.014,31.839l17.737,11.996l34.279,9.737l-33.092,-12.721l-16.683,-11.986c-5.917,-12.958 -11.968,-23.243 -18.255,-28.865Z" style="fill:#c0997b;"/></g><g><path d="M1.708,928.556c0.286,-22.545 23.309,-45.959 28.289,-60.92c0.999,-3 11.788,29.328 11.788,29.328c0,0 -3.133,7.219 -7.472,15.789l43.309,-37.299c6.703,-5.815 15.608,-11.809 31.654,-18.384c3.389,-2.459 8.76,-5.053 18.493,-7.945c15.459,-4.592 11.209,8.788 5.708,16.858c-6.06,8.891 -13.838,9.674 -22.471,13.645l-19.959,16.157l-14.115,23.514l33.815,-19.131c4.192,-2.431 9.039,-9.013 19.982,-17.269c4.36,-8.177 11.166,-11.283 14.997,-14.026c12.326,-8.825 19.093,-1.504 14.419,6.834c-4.931,8.793 -12.478,16.682 -17.939,23.585c-10.245,14.73 -16.979,19.337 -21.799,21.69l-33.25,24.228l35.198,-13.217l18.085,-18.743c2.791,-6.485 10.248,-13.848 18.919,-22.492c8.77,-8.743 23.222,-2.275 13.93,9.306c-7.875,9.814 -13.879,18.981 -17.508,26.882l-16.047,15.762l-36.248,23.983l32.474,-12.373l15.587,-11.059c4.244,-6.884 7.392,-19.879 19.003,-29.847c10.494,-9.008 19.14,-2.326 10.821,12.901c-5.588,10.227 -6.797,21.528 -15.268,29.504l-26.454,18.782l-29.437,17.235c-16.638,15.887 -34.438,22.854 -52.737,25.991l-84.856,15.649l-24.252,-62.671c12.687,-13.408 27.022,-28.625 53.341,-42.247Z" style="fill:#ffd9bc;stroke:#000;stroke-width:5.5px;"/><path d="M37.724,894.248l-7.61,-22.106c-13.432,18.027 -27.433,44.771 -26.406,58.414c-16.799,7.455 -31.803,18.547 -46.602,35.155l10.911,17.922c-0.833,-19.14 12.138,-31.996 36.104,-42.802c5.091,-16.921 18.898,-37.101 33.603,-46.583Z" style="fill:#c0997b;"/><path d="M135.923,854.358c-5.691,13.031 -16.422,18.863 -27.79,18.969c-6.809,8.872 -14.287,14.266 -22.742,17.041l-11.216,28.367l14.37,-24.177l20.658,-17.05c15.648,-4.638 26.865,-11.531 26.72,-23.15Z" style="fill:#c0997b;"/><path d="M155.506,866.992c-4.227,1.412 -7.572,3.157 -9.915,5.284c-5.861,3.173 -10.158,7.275 -13.014,12.234c-5.772,5.114 -10.564,9.322 -16.507,15.213l-38.412,22.339c10.709,-3.841 24.021,-11.236 34.725,-16.185c-0.019,3.629 2.668,7.042 8.777,9.525c-3.685,-2.232 -5.99,-6.321 -5.777,-10.53c2.94,-5.97 13.359,-13.657 20.542,-18.325c3.185,-7.537 10.889,-13.697 19.581,-19.555Z" style="fill:#c0997b;"/><path d="M150.297,904.102l-5.815,14.633l-21.34,19.956l-27.459,7.72l-8.079,1.443l35.894,-14.163l18.663,-19.068c0.519,-1.612 4.341,-6.122 8.136,-10.521Z" style="fill:#c0997b;"/><path d="M118.961,918.735l-34.522,26.145l0.711,-4.049l33.811,-22.096Z" style="fill:#9c8d65;"/><path d="M171.735,916.015c-6.426,11.618 -14.415,22.951 -16.014,31.839l-17.736,11.996l-34.28,9.737l33.092,-12.721l16.683,-11.986c5.917,-12.958 11.969,-23.243 18.255,-28.865Z" style="fill:#9c8d65;"/></g><path d="M587.545,664.404c40.882,-19.63 83.078,-7.101 116.254,16.402c24.99,17.703 44.261,44.932 48.421,113.099c21.277,51.051 42.937,99.896 50.37,149.375l-98.791,10.309c-72.772,-27.237 -113.901,-213.664 -116.254,-289.185Z" style="fill:#c80000;stroke:#000;stroke-width:8px;"/><path d="M435.685,982.611c-11.678,-33.389 -3.422,-50.699 22.003,-97.506c60.35,10.909 239.088,31.285 237.379,25.309l8.732,89.936c-79.484,5.292 -165.516,3.598 -268.114,-17.739Z" style="fill:#c80000;stroke:#000;stroke-width:8px;"/><g><path d="M457.564,661.237c4.583,-3.38 9.352,-2.787 14.234,0.194l4.214,25.601l-21.448,-0.559l3,-25.236Z" style="fill:#a35555;stroke:#000;stroke-width:5px;"/><path d="M467.288,665.035l0.854,8.951" style="fill:none;stroke:#fff;stroke-width:3.5px;"/><rect x="460.674" y="680.84" width="8.468" height="18.423" style="fill:#a35555;stroke:#000;stroke-width:5px;"/></g><path d="M616.616,660.205l-67.997,13.781l35.31,174.224l67.996,-13.781l-35.309,-174.224Z" style="fill:#c80000;"/><path d="M724.928,910.343l-46.231,4.483l5.412,55.823l46.231,-4.482l-5.412,-55.824Z" style="fill:#c80000;"/><path d="M470.579,792.488c48.863,8.246 87.074,8.487 116.966,2.474c3.036,20.038 -80.619,79.933 -97.612,79.907l15.964,13.547l-36.571,-5.43l1.253,-90.498Z" style="fill:#830000;"/><rect x="506.731" y="739.596" width="93.542" height="7.27" style="fill:#830000;stroke:#000;stroke-width:3.5px;"/><path d="M564.33,599.74l-32.379,13.604c12.017,14.154 15.775,29.83 7.322,46.707l20.064,39.344c63.251,-19.859 92.332,-7.281 124.772,11.261c10.049,5.744 40.337,5.867 41.231,-2.185c-30.59,-44.572 -90.649,-60.961 -141.073,-41.527l-1.274,-2.898l-11.173,-7.604l-7.49,-56.702Z" style="fill:#830000;"/><path d="M750.324,800.145c22.367,42.537 37.06,85.918 45.026,126.653l-62.237,7.857c20.918,-34.72 10.516,-80.066 -25.353,-122.36l42.564,-12.15Z" style="fill:#830000;"/><path d="M627.207,839.438l-22.325,-28.453c22.263,42.328 11.92,47.034 -6.565,40.85c-1.138,19.786 -1.813,37.661 -10.772,47.036l42.312,6.232l8.806,-19.102l-15.155,-44.563l3.699,-2Z" style="fill:#830000;"/><path d="M627.207,839.438c16.082,32.725 35.413,60.225 67.86,66.629c-3.01,2.889 -19.655,1.619 -36.259,0.362c-13.211,-21.013 -22.833,-43.792 -31.601,-66.991Z" style="fill:#830000;"/><path d="M601.41,853.546l0.158,0.126l0.34,0.273l0.484,0.391l0.477,0.386l0.47,0.382l0.464,0.377l0.457,0.374l0.45,0.369l0.445,0.366l0.193,0.159l0.675,0.56l0.844,0.703l0.82,0.686l0.798,0.671l0.775,0.654l0.753,0.638l0.733,0.622l0.713,0.606l1.367,1.164l1.296,1.103l0.162,0.137l0.457,0.393l0.603,0.515l0.588,0.501l0.573,0.484l0.559,0.471l0.274,0.228l0.271,0.226l0.268,0.221l0.264,0.218l0.262,0.214l0.258,0.211l0.256,0.207l0.253,0.202l0.25,0.2l0.247,0.195l0.245,0.192l0.242,0.189l0.24,0.185l0.237,0.181l0.235,0.177l0.233,0.174l0.231,0.171l0.229,0.167l0.227,0.163l0.224,0.16l0.223,0.157l0.221,0.153l0.22,0.15l0.218,0.146l0.216,0.143l0.215,0.14l0.214,0.137l0.213,0.133l0.211,0.131l0.21,0.127l0.069,0.041l0.14,0.084l0.207,0.124l0.206,0.12l0.206,0.117l0.205,0.115l0.205,0.112l0.205,0.109l0.204,0.106l0.205,0.104l0.204,0.101l0.205,0.098l0.205,0.096l0.205,0.094l0.206,0.091l0.207,0.089l0.207,0.087l0.209,0.085l0.21,0.082l0.21,0.08l0.213,0.078l0.214,0.077l0.03,0.01l0.184,0.067l0.216,0.076l0.217,0.075l0.221,0.072l0.222,0.071l0.225,0.069l0.227,0.067l0.23,0.065l0.233,0.064l0.236,0.062l0.239,0.061l0.243,0.058l0.245,0.058l0.25,0.055l0.073,0.016l0.176,0.053l0.252,0.074l0.256,0.072l0.261,0.072l0.084,0.022l0.177,0.067l0.264,0.098l0.269,0.096l0.274,0.096l0.029,0.01l0.245,0.115l0.28,0.129l0.285,0.128l0.291,0.128l0.296,0.127l0.303,0.128l0.169,0.069l0.137,0.077l0.31,0.171l0.316,0.171l0.323,0.172l0.329,0.172l0.336,0.173l0.31,0.155l0.037,0.022l1.558,1.868l-1.867,1.558l-0.042,0.015l-0.341,0.096l-0.383,0.105l-0.379,0.1l-0.377,0.098l-0.374,0.093l-0.37,0.09l-0.166,0.039l-0.2,0.024l-0.359,0.041l-0.357,0.037l-0.354,0.035l-0.352,0.031l-0.349,0.029l-0.31,0.022l-0.036,0l-0.338,-0.011l-0.336,-0.014l-0.334,-0.016l-0.225,-0.013l-0.104,-0.015l-0.322,-0.05l-0.32,-0.053l-0.318,-0.055l-0.223,-0.04l-0.09,-0.023l-0.308,-0.081l-0.304,-0.083l-0.302,-0.085l-0.3,-0.088l-0.297,-0.09l-0.294,-0.093l-0.292,-0.095l-0.29,-0.098l-0.288,-0.1l-0.285,-0.103l-0.283,-0.105l-0.281,-0.108l-0.279,-0.111l-0.238,-0.097l-0.038,-0.016l-0.274,-0.12l-0.271,-0.122l-0.269,-0.125l-0.267,-0.128l-0.265,-0.13l-0.264,-0.132l-0.261,-0.136l-0.26,-0.138l-0.258,-0.14l-0.257,-0.144l-0.255,-0.145l-0.253,-0.149l-0.252,-0.151l-0.251,-0.153l-0.249,-0.157l-0.248,-0.159l-0.246,-0.161l-0.246,-0.164l-0.245,-0.167l-0.243,-0.169l-0.163,-0.115l-0.079,-0.057l-0.241,-0.177l-0.24,-0.179l-0.239,-0.182l-0.239,-0.184l-0.238,-0.187l-0.238,-0.189l-0.237,-0.192l-0.237,-0.195l-0.238,-0.198l-0.237,-0.2l-0.238,-0.203l-0.238,-0.206l-0.238,-0.208l-0.238,-0.211l-0.239,-0.214l-0.24,-0.217l-0.241,-0.22l-0.242,-0.223l-0.242,-0.225l-0.244,-0.229l-0.245,-0.231l-0.246,-0.235l-0.248,-0.238l-0.249,-0.24l-0.251,-0.244l-0.253,-0.248l-0.255,-0.25l-0.257,-0.254l-0.258,-0.257l-0.262,-0.261l-0.528,-0.53l-0.539,-0.544l-0.55,-0.559l-0.562,-0.574l-0.426,-0.435l-0.149,-0.154l-1.183,-1.228l-1.245,-1.293l-0.646,-0.67l-0.664,-0.688l-0.683,-0.704l-0.701,-0.722l-0.722,-0.74l-0.742,-0.758l-0.763,-0.776l-0.612,-0.619l-0.174,-0.176l-0.4,-0.405l-0.406,-0.411l-0.412,-0.414l-0.418,-0.42l-0.424,-0.425l-0.431,-0.43l-0.437,-0.434l-0.307,-0.305l-0.137,-0.136l-0.007,-0.007l-0.542,-1.212l0.398,-1.209l0.007,-0.007l0.007,-0.008l1.156,-0.531l1.265,0.403Z"/><g><g><path d="M725.608,712.252c-31.349,-3.307 -60.042,5.927 -87.945,18.886c1.746,35.689 10.586,66.101 30.132,88.552c29.965,4.107 56.757,-2.864 80.921,-19.015c-1.174,-42.242 -10.41,-68.718 -23.108,-88.423Z" style="fill:#fff;stroke:#000;stroke-width:5px;"/><path d="M689.243,716.371c18.87,32.212 26.346,65.185 24.531,98.275c11.386,-3.24 22.436,-8.208 32.942,-15.971c-3.102,-29.228 -6.055,-57.939 -22.455,-84.08c-11.392,-1.051 -22.439,-0.736 -35.018,1.776Z" style="fill:#cbcbcb;"/><path d="M727.323,718.999c-28.548,-5.968 -55.323,2.126 -81.309,16.483c-0.003,37.058 11.847,59.733 26.793,78.648c27.406,3.416 52.376,-6.861 75.909,-20.075" style="fill:none;stroke:#000;stroke-width:1px;"/></g><g><path d="M701.924,724.718l31.416,25.603l-4.869,43.338l-12.102,-3.798l5.93,-34.741l-26.659,-19.251l6.284,-11.151Z" style="fill:#01a100;stroke:#000;stroke-width:2px;"/><path d="M675.248,735.349l36.273,23.84l-15.713,44.956l-11.907,-4.479l16.428,-34.589l-29.449,-18.612l4.368,-11.116Z" style="fill:#009de2;stroke:#000;stroke-width:2px;"/><path d="M685.425,729.894l-10.177,37.689l36.273,34.562l4.848,-12.284l-28.609,-24.12l7.747,-29.442l-10.082,-6.405Z" style="fill:#e26200;stroke:#000;stroke-width:2px;"/></g></g></g></svg>