<?xml version="1.0" encoding="UTF-8" standalone="no"?><!DOCTYPE svg PUBLIC "-//W3C//DTD SVG 1.1//EN" "http://www.w3.org/Graphics/SVG/1.1/DTD/svg11.dtd"><svg width="100%" height="100%" viewBox="0 0 210 251" version="1.1" xmlns="http://www.w3.org/2000/svg" xmlns:xlink="http://www.w3.org/1999/xlink" xml:space="preserve" xmlns:serif="http://www.serif.com/" style="fill-rule:evenodd;clip-rule:evenodd;stroke-linecap:round;stroke-linejoin:round;stroke-miterlimit:1.5;"><rect id="Orange" x="0" y="0" width="209.512" height="250.889" style="fill:none;"/><g id="Orange1" serif:id="Orange"><path d="M114.16,62.306c23.624,-39.866 54.132,-52.921 85.054,-41.568c-6.361,26.96 -37.238,40.058 -67.697,45.761l-17.357,-4.193Z" style="fill:#027818;stroke:#000;stroke-width:8px;"/><path d="M122.113,60.844c3.052,-13.344 21.535,-29.459 39.814,-26.346c-3.439,11.771 -11.048,24.488 -30.359,27.966l-9.455,-1.62Z" style="fill:#002f09;"/><path d="M101.241,65.468l5.482,-47.152c7.621,-3.294 15.908,-2.138 24.794,3l-14.928,47.987l-15.348,-3.835Z" style="fill:#a96b21;stroke:#000;stroke-width:8px;"/><path d="M115.16,62.306l7.951,-27.085c-2.757,-2.885 -6.141,-3.308 -10.093,-1.488l-4.314,27.674l6.456,0.899Z" style="fill:#5d3403;"/><circle cx="101.241" cy="153.648" r="92.241" style="fill:#ff8b00;stroke:#000;stroke-width:8px;"/><path d="M101.241,242.234c48.704,-16.027 78.96,-52.104 84.158,-115.418c18.305,55.712 -27.599,120.373 -84.158,115.418Z" style="fill:#a35900;"/><path d="M83.511,184.659c6.722,2.08 13.878,2.267 21.596,0c-7.529,7.726 -14.708,7.258 -21.596,0Z" style="fill:#a35900;"/><g><circle cx="125.472" cy="124.135" r="12.279"/><circle cx="121.324" cy="121.162" r="4.736" style="fill:#fff;"/></g><g><circle cx="64.67" cy="124.135" r="12.279"/><circle cx="60.522" cy="121.162" r="4.736" style="fill:#fff;"/></g><path d="M143.944,88.952c0,0 16.217,6.226 24.739,27.474" style="fill:none;stroke:#fff;stroke-width:15px;"/><g><path d="M76.949,148.427c13.232,3.88 25.278,3.761 36.245,0c-3.431,42.043 -36.234,40.722 -36.245,0Z" style="fill:#921c00;stroke:#000;stroke-width:5px;"/><path d="M86.405,173.207c6.154,-4.042 10.123,-4.285 15.861,0.221c-7.352,7.727 -12.301,4.243 -15.861,-0.221Z" style="fill:#ff3600;"/></g></g></svg>