<?xml version="1.0" encoding="UTF-8" standalone="no"?><!DOCTYPE svg PUBLIC "-//W3C//DTD SVG 1.1//EN" "http://www.w3.org/Graphics/SVG/1.1/DTD/svg11.dtd"><svg width="100%" height="100%" viewBox="0 0 401 457" version="1.1" xmlns="http://www.w3.org/2000/svg" xmlns:xlink="http://www.w3.org/1999/xlink" xml:space="preserve" xmlns:serif="http://www.serif.com/" style="fill-rule:evenodd;clip-rule:evenodd;stroke-linecap:round;stroke-linejoin:round;stroke-miterlimit:1.5;"><rect id="Poire" x="0" y="0" width="400.148" height="456.754" style="fill:none;"/><clipPath id="_clip1"><rect x="0" y="0" width="400.148" height="456.754"/></clipPath><g clip-path="url(#_clip1)"><g id="Poire1" serif:id="Poire"><path d="M161.065,68.583c-66.388,-42.535 -107.993,-44.874 -161.065,1.843c30.281,36.117 109.86,39.239 169.011,10.209l-7.946,-12.052Z" style="fill:#027818;stroke:#000;stroke-width:8px;"/><path d="M169.011,77.102c-44.915,-26.991 -59.967,-19.471 -84.506,6.72c52.497,9.558 67.31,-0.049 84.506,-6.72Z" style="fill:#002f09;"/><g><path d="M199.933,103.033l-21.445,-77.592c-10.125,-3.79 -19.638,0.012 -28.603,10.605l32.968,76.86l17.08,-9.873Z" style="fill:#a96b21;stroke:#000;stroke-width:8px;"/><path d="M195.78,100.648l-18.829,-65.144c-8.13,0.592 -12.651,4.001 -14.613,6.116l22.345,62.601l11.097,-3.573Z" style="fill:#5d3403;"/></g><path d="M173.698,262.992c-7.088,-11.737 -12.991,-25.127 -17.2,-39.729c-17.285,-59.956 0.483,-117.801 39.653,-129.093c39.17,-11.292 85.003,28.218 102.288,88.175c3.029,10.509 4.982,20.954 5.931,31.095c48.321,14.059 83.676,58.699 83.676,111.532c0,64.098 -52.039,116.138 -116.137,116.138c-64.098,0 -116.138,-52.04 -116.138,-116.138c0,-22.781 6.574,-44.04 17.927,-61.98Z" style="fill:#dadc35;stroke:#000;stroke-width:8px;"/><path d="M277.707,145.925c11.985,37.265 10.992,63.148 14.018,94.727c95.366,18.341 60.16,182.112 33.688,182.346c78.233,-36.822 85.378,-175.948 -23.772,-206.092c-3.087,-27.243 -10.832,-50.877 -23.934,-70.981Z" style="fill:#85871e;"/><path d="M291.456,237.747l-90.333,28.93c9.11,14.773 25.433,24.928 40.22,24.605c14.135,-18.306 33.236,-33.914 68.082,-24.605c18.027,-8.499 18.232,-18.376 9.685,-28.93l-27.654,0Z" style="fill:#85871e;"/><circle cx="233.04" cy="254.055" r="17.76" style="fill:#fff;stroke:#000;stroke-width:3.5px;"/><circle cx="286.725" cy="236.203" r="17.76" style="fill:#fff;stroke:#000;stroke-width:3.5px;"/><g><path d="M315.298,317.747l-44.285,17.038c-15.646,-70.372 9.748,-79.862 44.285,-17.038Z" style="fill:#921c00;stroke:#000;stroke-width:3.5px;"/><path d="M313.298,317.747l-40.285,16.038c-1.232,-27.937 20.619,-35.081 40.285,-16.038Z" style="fill:#ff3600;"/></g><path d="M236.383,285.757l9.92,24.878" style="fill:none;stroke:#000;stroke-width:3.5px;"/><path d="M227.383,288.757l9.92,24.878" style="fill:none;stroke:#000;stroke-width:3.5px;"/><path d="M243.383,282.757l9.92,24.878" style="fill:none;stroke:#000;stroke-width:3.5px;"/><path d="M182.383,280.757c-10.88,14.147 -12.629,31.181 -9.468,45.409" style="fill:none;stroke:#fff;stroke-width:9.5px;"/><path d="M243.317,123.512c4.027,-2.86 12.899,2.711 19.801,12.431c6.901,9.72 9.234,19.933 5.206,22.792c-4.027,2.859 -12.899,-2.711 -19.8,-12.431c-6.901,-9.72 -9.235,-19.933 -5.207,-22.792Z" style="fill:#fff;"/></g></g></svg>