<?xml version="1.0" encoding="UTF-8" standalone="no"?><!DOCTYPE svg PUBLIC "-//W3C//DTD SVG 1.1//EN" "http://www.w3.org/Graphics/SVG/1.1/DTD/svg11.dtd"><svg width="100%" height="100%" viewBox="0 0 353 314" version="1.1" xmlns="http://www.w3.org/2000/svg" xmlns:xlink="http://www.w3.org/1999/xlink" xml:space="preserve" xmlns:serif="http://www.serif.com/" style="fill-rule:evenodd;clip-rule:evenodd;stroke-linecap:round;stroke-linejoin:round;stroke-miterlimit:1.5;"><rect id="Poivron" x="0" y="0" width="352.242" height="314" style="fill:none;"/><clipPath id="_clip1"><rect x="0" y="0" width="352.242" height="314"/></clipPath><g clip-path="url(#_clip1)"><g><path d="M138.5,191.927c-1.999,-13.599 45.666,-80.894 49.363,-86.292c15.94,-23.27 48.164,-3.214 31.026,11.45c-25.854,22.123 -21.151,75.109 -6.842,75.769l-73.547,-0.927Z" style="fill:#027818;stroke:#000;stroke-width:8px;"/><path d="M169.677,190.243c0.768,-25.55 2.342,-52.98 27.622,-86.46c6.235,5.665 9.583,7.745 22.131,5.547c-0.184,4.242 -5.324,6.481 -7.769,10.121c-13.203,19.661 -14.278,46.636 -14.287,73.218l-27.697,-2.426Z" style="fill:#002f09;"/></g><path d="M125.335,155.385c-8.631,-12.231 -39.566,-13.885 -51.676,0c9.94,17.459 41.164,15.173 51.676,0Z" style="fill:#9c6702;stroke:#000;stroke-width:8px;"/><path d="M230.029,154.16c8.631,-12.23 39.566,-13.885 51.677,0c-9.94,17.459 -41.164,15.174 -51.677,0Z" style="fill:#9c6702;stroke:#000;stroke-width:8px;"/><path d="M91.728,168.114c-27.136,-20.641 -45.097,-8.971 -53.873,-0.477c-29.625,28.672 -16.319,92.491 -14.89,146.363l48.739,0c-5.992,-53.514 -7.997,-102.436 20.024,-145.886Z" style="fill:#ffb831;stroke:#000;stroke-width:8px;"/><path d="M87.002,166.966c-5.588,-5.104 -13.66,-8.781 -26.924,-9.277c-6.108,-0.229 -16.182,5.744 -18.825,8.941c-21.872,26.449 -19.07,54.348 -17.85,82.035c19.766,-7.069 35.467,-8.23 40.024,2.569c2.141,-34.182 10.881,-61.431 23.575,-84.268Z" style="fill:#9c6702;"/><path d="M257.722,163.817c17.789,-22.156 44.162,-10.122 52.996,-3.449c32.278,24.381 21.185,99.76 19.756,153.632l-48.739,0c5.991,-53.514 5.452,-107.178 -24.013,-150.183Z" style="fill:#ffb831;stroke:#000;stroke-width:8px;"/><path d="M288.134,256.633c8.562,-11.958 25.334,-11.083 40.844,-4.399c1.148,-30.269 3.477,-62.188 -12.948,-82.035c-3.541,-4.279 -11.561,-11.128 -20.438,-13.59c-14.669,-4.067 -31.551,-1.346 -33.497,6.47c15.73,28.978 24.058,57.666 26.039,93.554Z" style="fill:#9c6702;"/><path d="M281.685,314l-209.981,0c-9.635,-53.224 -7.617,-150.36 45.05,-160.382c27.42,-5.217 40.937,14.313 59.965,14.006c27.875,-0.449 50.377,-24.071 69.097,-13.035c46.111,27.185 43.629,110.337 35.869,159.411Z" style="fill:#ffb831;stroke:#000;stroke-width:8px;"/><path d="M71.206,250.2c48.915,-23.757 93.938,-3.489 105.445,-6.798c19.023,-5.472 90.351,-9.453 105.04,7.832c0.57,-42.702 -15.583,-83.249 -39.988,-94.444c-10.212,-4.685 -23.738,3.234 -43.644,10.678c-6.829,2.554 -17.018,2.409 -22.408,4.305c-6.725,-2.477 -9.45,-1.662 -14.14,-3.813c-16.691,-7.658 -24.815,-12.102 -41.386,-11.292c-32.728,1.602 -48.656,49.401 -48.919,93.532Z" style="fill:#9c6702;"/><g><path d="M110.093,233.197c17.068,-8.321 33.31,-9.366 48.367,0c-5.79,-31.327 -42.576,-30.145 -48.367,0Z"/><path d="M127.494,225.256c6.747,-0.753 10.581,-0.731 16.582,0c-0.795,-11.457 -16.309,-10.827 -16.582,0Z" style="fill:#fff;"/></g><g><path d="M191.241,233.197c17.068,-8.321 33.31,-9.366 48.367,0c-5.789,-31.327 -42.576,-30.145 -48.367,0Z"/><path d="M208.643,225.256c6.746,-0.753 10.58,-0.731 16.581,0c-0.795,-11.457 -16.309,-10.827 -16.581,0Z" style="fill:#fff;"/></g><g><path d="M124.224,312.803c-0.669,-21.093 -4.953,-51.902 14.276,-60.01c10.516,-4.435 23.344,6.692 35.266,9.203c9.956,2.096 29.659,-10.987 38.281,-8.616c20.746,5.707 13.86,39.179 12.624,59.62l-100.447,-0.197Z" style="fill:#921c00;stroke:#000;stroke-width:5px;"/><path d="M126.944,310.554l94.903,0c-30.821,-38.446 -62.497,-36.506 -94.903,0Z" style="fill:#ff3600;"/></g><ellipse cx="245.785" cy="239.244" rx="16.31" ry="6.047" style="fill:#ff3600;"/><ellipse cx="107.044" cy="239.244" rx="16.31" ry="6.047" style="fill:#ff3600;"/><path d="M272.113,257.637c0,0 1.223,33.421 -2,39.24" style="fill:none;stroke:#fff;stroke-width:8.5px;"/></g></svg>