<?xml version="1.0" encoding="UTF-8" standalone="no"?><!DOCTYPE svg PUBLIC "-//W3C//DTD SVG 1.1//EN" "http://www.w3.org/Graphics/SVG/1.1/DTD/svg11.dtd"><svg width="100%" height="100%" viewBox="0 0 420 339" version="1.1" xmlns="http://www.w3.org/2000/svg" xmlns:xlink="http://www.w3.org/1999/xlink" xml:space="preserve" xmlns:serif="http://www.serif.com/" style="fill-rule:evenodd;clip-rule:evenodd;stroke-linecap:round;stroke-linejoin:round;stroke-miterlimit:1.5;"><rect id="Citrouille" x="0" y="0" width="419.023" height="338.808" style="fill:none;"/><g id="Citrouille1" serif:id="Citrouille"><ellipse cx="151.255" cy="202.996" rx="71.816" ry="118.426" style="fill:#783d00;stroke:#060300;stroke-width:5px;"/><ellipse cx="261.189" cy="202.996" rx="71.816" ry="118.426" style="fill:#783d00;stroke:#000;stroke-width:5px;"/><ellipse cx="217.069" cy="202.996" rx="71.816" ry="118.426" style="fill:#783d00;stroke:#000;stroke-width:5px;"/><path d="M192.296,110.284c-1.999,-13.599 46.205,-93.163 52.679,-94.107c16.341,-2.382 33.733,8.223 16.463,15.999c-31.028,13.97 -40.092,74.511 -25.783,75.171l-43.359,2.937Z" style="fill:#027818;stroke:#000;stroke-width:8px;"/><path d="M212.226,105.334c0.768,-25.551 10.55,-49.294 35.83,-82.773c8.276,-0.693 12.393,1.028 16.138,5.398c-29.88,15.82 -38.093,40.492 -38.103,71.997l-13.865,5.378Z" style="fill:#002f09;"/><ellipse cx="315.788" cy="205.695" rx="98.719" ry="118.426" style="fill:#ff8100;stroke:#020100;stroke-width:5px;"/><path d="M305.356,321.422c20.793,1.991 38.316,-3.38 54.514,-11.733c34.284,-23.927 47.187,-56.162 51.806,-91.615c-21.855,45.706 -46.116,76.882 -78.147,61.129l-28.173,42.219Z" style="fill:#783d00;"/><ellipse cx="103.236" cy="205.695" rx="98.719" ry="118.426" style="fill:#ff8100;stroke:#000;stroke-width:5px;"/><path d="M115.836,322.706c-20.793,1.991 -39.316,-3.38 -55.513,-11.734c-34.284,-23.927 -48.187,-56.161 -52.806,-91.614c21.855,45.706 55.12,81.31 87.151,65.556l21.168,37.792Z" style="fill:#783d00;"/><ellipse cx="273.771" cy="217.382" rx="71.816" ry="118.426" style="fill:#ff8100;stroke:#000;stroke-width:5px;"/><path d="M225.248,271.957c24.917,18.603 41.948,49.312 102.94,18.621c-21.483,40.098 -49.862,56.223 -81.151,33.543c-5.782,-4.191 -18.681,-42.798 -21.789,-52.164Z" style="fill:#783d00;"/><ellipse cx="153.187" cy="217.382" rx="71.816" ry="118.426" style="fill:#ff8100;stroke:#000;stroke-width:5px;"/><path d="M185.073,277.65c-27.581,25.716 -28.611,53.391 -85.713,12.309c14.282,36.41 53.528,59.227 85.153,31.041c5.332,-4.752 -2.549,-33.984 0.56,-43.35Z" style="fill:#783d00;"/><ellipse cx="217.069" cy="217.382" rx="56.702" ry="118.426" style="fill:#ff8100;stroke:#000;stroke-width:5px;"/><g><circle cx="167.112" cy="165.001" r="22.16"/><circle cx="167.112" cy="155.101" r="6.9" style="fill:#f0fff3;"/></g><g><circle cx="262.92" cy="165.001" r="22.16"/><circle cx="262.92" cy="155.101" r="6.9" style="fill:#f0fff3;"/></g><g><path d="M176.409,217.382c-3.971,31.487 20.567,39.606 40.66,5.188c20.275,41.785 44.861,18 38.101,-5.188" style="fill:none;stroke:#000;stroke-width:5px;"/><path d="M193.917,244.464c9.373,-2.448 17.117,-9.67 23.152,-21.894c6.723,13.723 14.58,22.122 24.059,22.903c-15.707,34.564 -31.948,38.694 -47.211,-1.009Z" style="fill:#921c00;stroke:#000;stroke-width:5px;"/></g><path d="M206.131,263.32c7.932,9.012 11.323,9.66 21.145,0.736c-6.143,-3.864 -13.307,-3.646 -21.145,-0.736Z" style="fill:#ff3600;"/><path d="M310.47,98.956c0,0 31.465,-2.25 50.157,20.833" style="fill:none;stroke:#fff;stroke-width:8px;"/><path d="M69.193,109.343c0,0 13.151,-12.093 34.043,-10.447" style="fill:none;stroke:#fff;stroke-width:8px;"/><path d="M153.191,109.343c0,0 -23.496,1.044 -28.225,15.208" style="fill:none;stroke:#fff;stroke-width:8px;"/><path d="M201.954,119.789c0,0 16.809,-14.761 32.499,1.762" style="fill:none;stroke:#fff;stroke-width:8px;"/><path d="M282.659,109.343c0,0 26.366,10.937 27.811,30.416" style="fill:none;stroke:#fff;stroke-width:8px;"/><path d="M173.601,288.116c27.144,40.716 57.118,39.217 86.936,0c-23.595,59.855 -62.143,61.222 -86.936,0Z" style="fill:#783d00;"/></g></svg>