<?xml version="1.0" encoding="UTF-8" standalone="no"?><!DOCTYPE svg PUBLIC "-//W3C//DTD SVG 1.1//EN" "http://www.w3.org/Graphics/SVG/1.1/DTD/svg11.dtd"><svg width="100%" height="100%" viewBox="0 0 800 314" version="1.1" xmlns="http://www.w3.org/2000/svg" xmlns:xlink="http://www.w3.org/1999/xlink" xml:space="preserve" xmlns:serif="http://www.serif.com/" style="fill-rule:evenodd;clip-rule:evenodd;stroke-linecap:round;stroke-linejoin:round;stroke-miterlimit:1.5;"><rect id="Courgette---carotte" serif:id="Courgette &amp; carotte" x="0" y="0" width="800" height="314" style="fill:none;"/><clipPath id="_clip1"><rect x="0" y="0" width="800" height="314"/></clipPath><g clip-path="url(#_clip1)"><g><path d="M77.247,314c195.386,-172.07 449.875,-165.418 655.777,0l-655.777,0Z" style="fill:#f90;stroke:#000;stroke-width:8px;"/><path d="M206.091,310c123.1,-112.542 283.435,-108.192 413.16,0l-413.16,0Z" style="fill:#995c00;"/></g><g id="Courgette"><path d="M29.728,314c22.93,-75.577 54.088,-152.21 105.474,-231.441c39.612,-12.524 72.188,-5.631 95.578,9.844c-15.202,91.757 -34.169,169.607 -60.136,221.597l-140.916,0Z" style="fill:#356100;stroke:#000;stroke-width:8px;"/><path d="M226.397,93.969c-8.388,-4.107 -16.775,-7.097 -25.162,-9.843c3.399,17.464 8.245,32.676 -1.81,50.139c10.756,18.728 -27.269,86.265 -62.202,175.484l30.562,-0.436c30.483,-68.827 48.043,-141.142 58.612,-215.344Z" style="fill:#294705;"/><path d="M140.223,81.064l19.109,-31.052l16.638,-0.547l2.515,7.336l8.667,-8.12l17.875,2.628l3.005,13.649l11.505,-11.576l9.901,3.419l-3.223,32.762c-21.932,-11.255 -59.988,-18.293 -85.992,-8.499Z" style="fill:#64a813;stroke:#000;stroke-width:8px;"/><path d="M157.291,83.138c-44.928,81.395 -61.902,147.608 -79.502,224.862" style="fill:none;stroke:#427a00;stroke-width:3.5px;"/><path d="M216.042,90.725c-9.481,86.506 -32.436,136.759 -66.051,217.275" style="fill:none;stroke:#427a00;stroke-width:3.5px;"/><g><circle cx="164.084" cy="116.422" r="14.099"/><circle cx="169.023" cy="118.258" r="5.939" style="fill:#fff;"/></g><g><path d="M207.578,108.51c5.867,0.975 9.594,7.999 8.318,15.675c-1.275,7.676 -7.074,13.117 -12.941,12.142c-5.867,-0.975 -9.595,-7.999 -8.319,-15.675c1.276,-7.676 7.075,-13.117 12.942,-12.142Z"/><path d="M210.166,117.959c2.472,0.41 4.042,3.369 3.504,6.602c-0.537,3.234 -2.98,5.525 -5.451,5.115c-2.471,-0.411 -4.041,-3.37 -3.504,-6.603c0.537,-3.233 2.98,-5.525 5.451,-5.114Z" style="fill:#fff;"/></g><g><path d="M182.138,141.699c7.288,2.234 9.989,14.539 6.028,27.462c-3.961,12.923 -13.094,21.601 -20.381,19.368c-7.288,-2.234 -9.988,-14.539 -6.027,-27.462c3.961,-12.923 13.093,-21.602 20.38,-19.368Z" style="fill:#921c00;stroke:#050800;stroke-width:3.5px;"/><path d="M161.758,175.947c10.686,-9.52 16.675,-6.866 19.38,4.297c-7.98,9.689 -16.973,10.156 -19.38,-4.297Z" style="fill:#ff3600;"/></g><path d="M142.061,129.474c6.254,0.951 11.033,3.686 10.665,6.105c-0.368,2.419 -5.743,3.611 -11.997,2.661c-6.254,-0.951 -11.033,-3.686 -10.665,-6.105c0.368,-2.419 5.743,-3.611 11.997,-2.661Z" style="fill:#ff3600;"/><path d="M213.377,140.68c5.32,0.809 9.43,2.842 9.173,4.537c-0.258,1.695 -4.786,2.414 -10.106,1.606c-5.32,-0.809 -9.43,-2.841 -9.173,-4.536c0.258,-1.696 4.786,-2.415 10.106,-1.607Z" style="fill:#ff3600;"/><path d="M208.385,69.122c1.856,3.296 -0.345,5.859 -5.125,7.955c8.061,2.142 16.343,4.381 20.29,7.032l1.874,-25.151l-4.85,-0.95l-12.189,11.114Z" style="fill:#3b6d00;"/><path d="M138.223,97.134c0,0 -9.346,10.361 -15.221,25.284" style="fill:none;stroke:#fff;stroke-width:6.5px;"/></g><g id="Carotte"><path d="M597.981,135.426c29.769,-26.816 91.337,-28.304 129.51,-13.008c21.036,8.43 6.831,133.225 3.49,191.582l-85.846,0c-17.739,-53.041 -61.571,-165.588 -47.154,-178.574Z" style="fill:#f60;stroke:#040800;stroke-width:8px;"/><path d="M650.117,118.115c-29.105,19.959 -29.429,40.911 -18.902,60.488c-11.945,45.346 14.318,87.925 35.73,131.778l-20.774,-0.246c-23.137,-69.17 -55.282,-139.58 -46.734,-171.476c3.007,-11.22 31.992,-18.07 50.68,-20.544Z" style="fill:#aa4502;"/><g><path d="M653.05,188.88c-8.887,0.1 -14.587,10.601 -12.721,23.435c1.867,12.834 10.597,23.172 19.484,23.072c8.888,-0.101 14.587,-10.602 12.721,-23.435c-1.867,-12.834 -10.597,-23.172 -19.484,-23.072Z" style="fill:#921c00;stroke:#050800;stroke-width:3.5px;"/><path d="M669.414,225.517c-10.35,-11.518 -17.824,-10.689 -23.29,-1.231c7.187,10.953 17.478,13.768 23.29,1.231Z" style="fill:#ff3600;"/></g><path d="M690.24,172.591c7.362,-0.835 13.555,0.389 13.821,2.731c0.265,2.342 -5.496,4.921 -12.858,5.756c-7.362,0.835 -13.555,-0.388 -13.821,-2.731c-0.265,-2.342 5.496,-4.921 12.858,-5.756Z" style="fill:#ff3600;"/><path d="M614.166,184.239c5.431,-0.616 10.036,0.614 10.277,2.745c0.242,2.131 -3.971,4.362 -9.401,4.977c-5.43,0.616 -10.035,-0.614 -10.277,-2.745c-0.241,-2.131 3.971,-4.362 9.401,-4.977Z" style="fill:#ff3600;"/><g><path d="M667.099,144.774c-7.714,1.019 -13.15,8.109 -12.132,15.823c1.019,7.715 8.109,13.151 15.823,12.132c7.715,-1.018 13.151,-8.108 12.133,-15.823c-1.019,-7.714 -8.109,-13.151 -15.824,-12.132Z"/><path d="M663.25,153.348c-3.25,0.429 -5.54,3.415 -5.111,6.665c0.429,3.249 3.416,5.539 6.666,5.11c3.249,-0.429 5.539,-3.415 5.11,-6.665c-0.429,-3.249 -3.416,-5.539 -6.665,-5.11Z" style="fill:#fff;"/></g><g><path d="M622.606,153.221c-6.227,0.658 -10.619,7.474 -9.802,15.213c0.818,7.738 6.537,13.487 12.764,12.829c6.228,-0.658 10.62,-7.475 9.803,-15.213c-0.818,-7.738 -6.537,-13.487 -12.765,-12.829Z"/><path d="M619.494,161.59c-2.623,0.277 -4.473,3.149 -4.129,6.408c0.344,3.26 2.753,5.681 5.377,5.404c2.623,-0.277 4.473,-3.148 4.128,-6.408c-0.344,-3.259 -2.753,-5.681 -5.376,-5.404Z" style="fill:#fff;"/></g><path d="M672.2,112.657c21.408,-20.977 30.978,-54.245 36.086,-91.881c-9.118,-10.023 -14.026,-9.116 -24.581,-5.534c-5.359,28.033 -11.185,70.5 -24.06,97.415l12.555,0Z" style="fill:#027818;stroke:#040800;stroke-width:8px;"/><path d="M665.945,107.016c5.915,-12.596 11.843,-26.047 18.021,-56.419c2.907,-0.611 5.607,0.115 8.097,2.177c-6.786,22.22 -13.838,40.268 -21.034,56.039c-2.699,0.236 -4.809,0.084 -5.084,-1.797Z" style="fill:#002f09;"/><path d="M650.715,114.055c-17.515,-23.058 -36.073,-57.633 -45.313,-87.63c9.118,-10.022 24.211,-23.342 34.766,-19.76c-3.933,39.546 7.645,86.828 26.777,105.992l-16.23,1.398Z" style="fill:#027818;stroke:#040800;stroke-width:8px;"/><path d="M612.741,35.503c3.125,-4.551 7.724,-8.55 16.937,-10.821c1.822,31.06 13.164,61.345 29.967,84.89l-11.632,0.847c-15.411,-25.048 -26.345,-49.754 -35.272,-74.916Z" style="fill:#002f09;"/><path d="M638.182,116.296c-17.516,-23.058 -63.39,-43.053 -72.629,-73.05c9.118,-10.022 19.01,-12.715 29.565,-9.133c5.36,28.034 42.723,51.629 55.597,78.544l-12.533,3.639Z" style="fill:#027818;stroke:#040800;stroke-width:8px;"/><path d="M597.118,50.597c-4.407,2.854 -7.613,5.434 -8.586,9.465c21.604,22.106 40.447,37.544 50.583,52.476l5.984,-2.119c-4.425,-11.188 -27.143,-30.885 -47.981,-59.822Z" style="fill:#002f09;"/><path d="M704.061,269.867c0,0 22.475,0.884 30.271,-2.882" style="fill:none;stroke:#000;stroke-width:5px;"/><path d="M737.909,153.155c0,0 -21.065,-2.979 -29.024,-1.725" style="fill:none;stroke:#000;stroke-width:5px;"/><path d="M624.453,254.639c0,0 19.342,1.66 25.664,-1.645" style="fill:none;stroke:#000;stroke-width:5px;"/><path d="M723.397,181.078c1.411,18.803 1.457,36.62 -2.201,52.797" style="fill:none;stroke:#fff;stroke-width:8px;"/></g><g id="Télécommande"><g><path d="M340.393,74.329l120.961,0l52.496,174.903l-227.7,0l54.243,-174.903Z" style="fill:#939393;stroke:#000;stroke-width:8px;"/><rect x="286.15" y="249.232" width="227.699" height="34.086" style="fill:#515151;stroke:#000;stroke-width:8px;"/></g><g><path d="M333.102,163.663l0,-14.747l47.187,0l0,14.747c-6.274,8.917 -39.082,10.847 -47.187,0Z" style="fill:#910400;stroke:#000;stroke-width:3px;"/><ellipse cx="356.695" cy="148.916" rx="23.594" ry="7.54" style="fill:#e10600;stroke:#000;stroke-width:3px;"/></g><g><path d="M420.592,163.886l0,-14.748l47.188,0l0,14.748c-6.274,8.916 -39.082,10.846 -47.188,0Z" style="fill:#0a6318;stroke:#000;stroke-width:3px;"/><ellipse cx="444.186" cy="149.138" rx="23.594" ry="7.54" style="fill:#008e17;stroke:#000;stroke-width:3px;"/></g><g><path d="M345.748,107.789l0,-10.795l34.541,0l0,10.795c-4.592,6.526 -28.607,7.939 -34.541,0Z" style="fill:#006d93;stroke:#000;stroke-width:3px;"/><ellipse cx="363.019" cy="96.994" rx="17.27" ry="5.52" style="fill:#00bdff;stroke:#000;stroke-width:3px;"/></g><g><path d="M359.695,79.361l0,-5.315l17.004,0l0,5.315c-2.261,3.213 -14.083,3.908 -17.004,0Z" style="fill:#fff;stroke:#000;stroke-width:3px;"/><ellipse cx="368.197" cy="74.046" rx="8.502" ry="2.717" style="fill:#bcbcbc;stroke:#000;stroke-width:3px;"/></g><g><path d="M415.22,107.789l0,-10.795l34.541,0l0,10.795c-4.592,6.526 -28.607,7.939 -34.541,0Z" style="fill:#aa9109;stroke:#000;stroke-width:3px;"/><ellipse cx="432.491" cy="96.994" rx="17.27" ry="5.52" style="fill:#ffd900;stroke:#000;stroke-width:3px;"/></g><g><path d="M365.873,194.58l8.021,-7.15l23.587,16.53l-17.017,25.33l-14.591,-9.959l15.485,-13.535l-15.485,-11.216Z" style="fill:#35a5d6;stroke:#000;stroke-width:3px;"/><path d="M402.519,194.58l-8.02,-7.15l-22.963,16.953l17.496,24.907l13.487,-9.959l-15.875,-13.535l15.875,-11.216Z" style="fill:#f5a02b;stroke:#000;stroke-width:3px;"/><path d="M402.519,194.58l8.021,-7.15l23.587,16.53l-18.787,25.33l-12.821,-9.959l15.485,-13.535l-15.485,-11.216Z" style="fill:#5dd74d;stroke:#000;stroke-width:3px;"/></g></g><path d="M302.735,53.889l6.357,8.847l9.338,-3.287l-5.409,8.754l6.358,8.847l-9.7,-3.436l-5.409,8.755l-0.586,-10.879l-9.7,-3.436l9.338,-3.287l-0.587,-10.878Z" style="fill:#f90;stroke:#000;stroke-width:3px;"/><path d="M514.156,78.687l1.194,14.565l13.007,2.674l-12.269,6.327l1.194,14.565l-8.776,-10.655l-12.269,6.327l6.845,-12.912l-8.777,-10.654l13.007,2.675l6.844,-12.912Z" style="fill:#f90;stroke:#000;stroke-width:3px;"/><path d="M494.889,53.889l1.724,8.06l7.47,0.553l-6.404,4.429l1.724,8.06l-5.682,-5.323l-6.404,4.428l2.892,-7.718l-5.682,-5.324l7.47,0.553l2.892,-7.718Z" style="fill:#f90;stroke:#020100;stroke-width:3px;"/></g></svg>