<?xml version="1.0" encoding="UTF-8" standalone="no"?><!DOCTYPE svg PUBLIC "-//W3C//DTD SVG 1.1//EN" "http://www.w3.org/Graphics/SVG/1.1/DTD/svg11.dtd"><svg width="100%" height="100%" viewBox="0 0 131 135" version="1.1" xmlns="http://www.w3.org/2000/svg" xmlns:xlink="http://www.w3.org/1999/xlink" xml:space="preserve" xmlns:serif="http://www.serif.com/" style="fill-rule:evenodd;clip-rule:evenodd;stroke-linecap:round;stroke-linejoin:round;stroke-miterlimit:1.5;"><rect id="Fraise" x="0" y="0" width="130.44" height="134.04" style="fill:none;"/><g id="Fraise1" serif:id="Fraise"><path d="M57.37,45.731c21.842,-7.62 17.482,-28.101 8.878,-32.883c-16.73,-0.771 -11.621,28.93 -8.878,32.883Z" style="fill:#002f09;stroke:#000;stroke-width:5px;"/><path d="M56.243,46.653l2.76,-23.732c3.835,-1.659 8.007,-1.077 12.479,1.509l-7.514,24.153l-7.725,-1.93Z" style="fill:#027818;stroke:#000;stroke-width:5px;"/><path d="M59.095,45.257l5.309,-18.58l3.739,0.569l-4.28,17.916l-4.768,0.095Z" style="fill:#002f09;"/><path d="M27.787,56.65c-6.975,31.126 3.115,59.549 31.182,71.775c30.106,-8.673 40.159,-38.883 35.726,-71.29c-20.789,-14.461 -49.247,-15.762 -66.908,-0.485Z" style="fill:#7c0000;stroke:#000;stroke-width:5px;"/><path d="M29.702,62.816c-1.769,4.16 -1.8,9.626 -1.186,15.576c6.369,-0.951 13.017,-5.003 16.322,-9.036c0.039,5.869 2.261,10.172 4.525,14.883c11.017,-3.398 16.287,-10.513 22.425,-17.039c5.314,6.25 12.869,11.839 19.927,11.091c0.991,-4.883 1.393,-9.753 0.739,-14.602l-31.779,-11.965l-30.973,11.092Z" style="fill:#4a0000;"/><g><path d="M44.197,87.088c6.977,-0.105 13.178,0.688 18.855,0c-1.785,28.599 -18.85,27.7 -18.855,0Z" style="fill:#921c00;stroke:#000;stroke-width:2.5px;"/><path d="M48.755,103.626c3.202,-2.749 5.696,-2.861 8.681,0.205c-3.824,5.256 -6.829,2.832 -8.681,-0.205Z" style="fill:#ff3600;"/></g><path d="M63.863,45.342c10.153,-17.134 23.265,-22.744 36.554,-17.865c1.028,13.123 -31.287,20.017 -36.554,17.865Z" style="fill:#027818;stroke:#000;stroke-width:5px;"/><path d="M56.243,44.868c-10.153,-17.133 -23.265,-22.744 -36.554,-17.865c-1.028,13.123 31.287,20.017 36.554,17.865Z" style="fill:#027818;stroke:#000;stroke-width:5px;"/><path d="M56.631,46.235c-10.555,16.89 -23.796,22.19 -36.966,16.998c9.496,-19.015 31.751,-19.273 36.966,-16.998Z" style="fill:#027818;stroke:#000;stroke-width:5px;"/><path d="M60.967,45.162c13.041,9.746 1.693,27.969 -6.532,31.781c-8.728,-14.206 3.134,-30.382 6.532,-31.781Z" style="fill:#027818;stroke:#000;stroke-width:5px;"/><path d="M36.54,69.356l11.242,9.92l-12.398,3.306" style="fill:none;stroke:#000;stroke-width:5px;"/><path d="M76.267,69.356l-17.097,9.92l18.855,3.306" style="fill:none;stroke:#000;stroke-width:5px;"/><path d="M58.303,82.582l18.218,3.493" style="fill:none;stroke:#000;stroke-width:1px;"/><path d="M49.505,82.582l-13.706,3.493" style="fill:none;stroke:#000;stroke-width:1px;"/><path d="M63.863,45.646c10.153,17.134 23.265,22.744 36.554,17.865c1.028,-13.123 -31.287,-20.017 -36.554,-17.865Z" style="fill:#027818;stroke:#000;stroke-width:5px;"/><path d="M61.415,47.525c-6.162,6.771 -5.125,8.724 -2.32,13.527c6.003,-3.728 6.611,-5.631 2.32,-13.527Z" style="fill:#002f09;"/><path d="M52.292,43.258c-7.874,-10.468 -14.202,-12.275 -21.815,-11.27c7.447,8.08 13.865,11.22 21.815,11.27Z" style="fill:#002f09;"/><path d="M68.442,43.258c7.874,-10.468 13.475,-10.824 21.088,-9.819c-2.415,7.078 -10.94,9.331 -21.088,9.819Z" style="fill:#002f09;"/><path d="M53.292,47.956c-8.199,-1.878 -14.304,2.718 -16.977,7.244c10.965,-0.716 11.943,-1.091 16.977,-7.244Z" style="fill:#002f09;"/><path d="M67.143,47.525c8.53,-0.074 15.603,4.178 18.277,8.704c-8.375,1.408 -13.243,-2.551 -18.277,-8.704Z" style="fill:#002f09;"/><path d="M70.108,115.299c4.755,-1.924 8.517,-5.519 10.842,-11.069" style="fill:none;stroke:#fff;stroke-width:4px;"/><circle cx="87.002" cy="76.55" r="2.683" style="fill:#fff;"/><circle cx="84.319" cy="90.817" r="2.683" style="fill:#fff;"/><circle cx="70.074" cy="90.817" r="2.683" style="fill:#fff;"/><circle cx="67.392" cy="106.927" r="2.683" style="fill:#fff;"/><circle cx="55.502" cy="117.682" r="2.683" style="fill:#fff;"/><ellipse cx="41.512" cy="106.927" rx="1.454" ry="2.683" style="fill:#fff;"/><ellipse cx="35.971" cy="93.499" rx="1.789" ry="2.683" style="fill:#fff;"/><ellipse cx="31.336" cy="75.295" rx="1.454" ry="2.683" style="fill:#fff;"/><path d="M92.194,72.006c24.503,-4.618 40.683,-27.891 17.505,-44.802" style="fill:none;stroke:#000;stroke-width:2px;"/><path d="M95.581,75.969c24.503,-4.618 39.119,-28.608 22.49,-45.534" style="fill:none;stroke:#000;stroke-width:2px;"/><path d="M13.761,53.202c-11.334,-7.975 -0.973,-39.16 21.707,-38.536" style="fill:none;stroke:#000;stroke-width:2px;"/><path d="M10.228,53.14c-11.334,-7.975 -1.422,-39.993 21.206,-41.544" style="fill:none;stroke:#000;stroke-width:1.5px;"/></g></svg>