<?xml version="1.0" encoding="UTF-8" standalone="no"?><!DOCTYPE svg PUBLIC "-//W3C//DTD SVG 1.1//EN" "http://www.w3.org/Graphics/SVG/1.1/DTD/svg11.dtd"><svg width="100%" height="100%" viewBox="0 0 208 205" version="1.1" xmlns="http://www.w3.org/2000/svg" xmlns:xlink="http://www.w3.org/1999/xlink" xml:space="preserve" xmlns:serif="http://www.serif.com/" style="fill-rule:evenodd;clip-rule:evenodd;stroke-linecap:round;stroke-linejoin:round;stroke-miterlimit:1.5;"><rect id="Tomate" x="0" y="0" width="207.539" height="204.92" style="fill:none;"/><g id="Tomate1" serif:id="Tomate"><path d="M102.589,65.184c-8.934,5.829 -31.34,-5.627 -61.904,-27.549c31.843,0.181 52.924,13.5 61.904,27.549Z" style="fill:#002f09;stroke:#000;stroke-width:8px;"/><path d="M89.497,72.652c10.062,3.542 29.109,-12.904 53.598,-41.452c-30.89,7.732 -48.209,25.673 -53.598,41.452Z" style="fill:#002f09;stroke:#000;stroke-width:8px;"/><path d="M92.865,85.585l-7.047,-65.973c5.104,-5.901 10.616,-6.904 16.771,-0.201l0,64.75l-9.724,1.424Z" style="fill:#027818;stroke:#000;stroke-width:8px;"/><path d="M93.956,66.586l-3.921,-42.591c1.756,-1.37 3.473,-1.179 5.169,-0.165l2.501,42.863l-3.749,-0.107Z" style="fill:#002f09;"/><path d="M98.256,70.995c115.938,-54.35 139.306,114.665 13.195,127.163c-126.102,12.496 -141.776,-163.792 -13.195,-127.163Z" style="fill:#ab0000;stroke:#000;stroke-width:8px;"/><path d="M40.537,74.909c-25.92,10.416 -36.991,42.062 -18.485,78.278c38.494,5.808 38.186,-11.182 65.79,-11.213c32.815,-0.036 34.919,15.625 67.939,11.947c12.981,-1.446 -4.542,23.748 -18.792,34.891c55.699,-14.19 82.25,-98.574 18.676,-123.949l-115.128,10.046Z" style="fill:#670000;"/><path d="M157.745,76.596c0,0 14.544,4.577 20.467,19.415" style="fill:none;stroke:#fff;stroke-width:9px;"/><g><path d="M113.548,185.141l-46.26,-1.31c2.468,-51.757 45.702,-44.234 46.26,1.31Z" style="fill:#921c00;stroke:#000;stroke-width:3.5px;"/><path d="M111.664,183.47l-42.05,-1.573c8.205,-26.734 29.906,-22.96 42.05,1.573Z" style="fill:#ff3600;"/></g><path d="M89.497,64.966c-6.533,-8.433 -31.455,-4.947 -67.512,5.757c30.146,10.257 54.426,4.576 67.512,-5.757Z" style="fill:#027818;stroke:#000;stroke-width:8px;"/><path d="M102.589,65.834c4.028,-9.877 28.972,-13.21 66.579,-12.581c-26.286,17.975 -51.199,19.022 -66.579,12.581Z" style="fill:#027818;stroke:#000;stroke-width:8px;"/><path d="M94.204,72.565c-8.934,-5.829 -31.34,5.627 -61.904,27.549c31.843,-0.182 52.924,-13.5 61.904,-27.549Z" style="fill:#027818;stroke:#000;stroke-width:8px;"/><path d="M98.284,72.565c8.934,-5.829 31.341,5.627 61.904,27.549c-31.843,-0.182 -52.924,-13.5 -61.904,-27.549Z" style="fill:#027818;stroke:#000;stroke-width:8px;"/><path d="M83.542,64.693c-4.762,-0.856 -15.669,1.796 -37.331,6.363c15.241,2.548 25.377,0.366 37.331,-6.363Z" style="fill:#002f09;"/><path d="M108.417,64.883c3.989,-2.74 10.626,-4.449 31.67,-6.626c-12.844,8.594 -18.006,7.84 -31.67,6.626Z" style="fill:#002f09;"/><path d="M87.842,75.134c-2.592,5.187 -9.708,7.002 -16.488,8.182c4.244,-4.799 10.157,-9.5 16.488,-8.182Z" style="fill:#002f09;"/><path d="M105.358,75.134c2.592,5.187 8.707,7.002 15.488,8.182c-4.244,-4.799 -9.157,-9.5 -15.488,-8.182Z" style="fill:#002f09;"/><g><path d="M43.208,135.132l0.03,-22.739l28.443,5.279l0.121,13.96l-28.594,3.5Z" style="fill:#fff;"/><path d="M43.087,107.396l28.594,5.308" style="fill:none;stroke:#000;stroke-width:2px;"/><path d="M43.238,112.393l28.594,5.307" style="fill:none;stroke:#000;stroke-width:5px;"/><path d="M43.116,135.408l28.716,-3.779" style="fill:none;stroke:#000;stroke-width:5px;"/><path d="M43.116,140.408l28.716,-3.779" style="fill:none;stroke:#000;stroke-width:2px;"/></g><g><path d="M144.603,135.132l-0.043,-22.739l-41.793,5.279l-0.178,13.96l42.014,3.5Z" style="fill:#fff;"/><path d="M143.132,107.396l-40.331,5.308" style="fill:none;stroke:#000;stroke-width:2px;"/><path d="M142.92,112.393l-40.331,5.307" style="fill:none;stroke:#000;stroke-width:5px;"/><path d="M143.092,135.408l-40.503,-3.779" style="fill:none;stroke:#000;stroke-width:5px;"/><path d="M143.092,140.408l-40.503,-3.779" style="fill:none;stroke:#000;stroke-width:2px;"/></g></g></svg>